<svg id="Camada_1" data-name="Camada 1" xmlns="http://www.w3.org/2000/svg" viewBox="0 0 375.1 137.87"><defs><style>.cls-1{fill:#fff;}</style></defs><title>logo.white</title><path id="Caminho_605" data-name="Caminho 605" class="cls-1" d="M89.13,58h12.93a35.79,35.79,0,0,0,15-2.9,22.21,22.21,0,0,0,9.68-8.18,24,24,0,0,1,2.38-5.5c.08-.14.17-.26.25-.4a18.06,18.06,0,0,0,.43-1.83,26.89,26.89,0,0,0,.47-5.15,16.09,16.09,0,0,0-5.94-13.3Q118.38,16,107.52,16H84.08L72.47,74H86ZM113,44a15.66,15.66,0,0,1-10.36,3.07H91.29l4.06-20.14h10.53a13.15,13.15,0,0,1,8,2.07,7.27,7.27,0,0,1,2.78,6.22A10.88,10.88,0,0,1,113,44Z"/><path id="Caminho_606" data-name="Caminho 606" class="cls-1" d="M129.09,41.45a23.89,23.89,0,0,0-2.38,5.49,27.22,27.22,0,0,0-1.1,7.77,19.56,19.56,0,0,0,2.78,10.49,18.58,18.58,0,0,0,7.87,7,26.62,26.62,0,0,0,11.81,2.48A28.25,28.25,0,0,0,162,71.29a24.61,24.61,0,0,0,11.64-13.7,25.27,25.27,0,0,1-.16-2.88,28.39,28.39,0,0,1,1.39-9c0-.21-.07-.42-.1-.64a18.25,18.25,0,0,0-10.32-13.87,26.53,26.53,0,0,0-11.86-2.48,28.06,28.06,0,0,0-13.84,3.39,25.13,25.13,0,0,0-8.31,7.34c-.37.5-.71,1-1.05,1.56ZM160.26,57a12.57,12.57,0,0,1-4.65,5.18A12.41,12.41,0,0,1,148.9,64a10.25,10.25,0,0,1-7.5-2.66,9.64,9.64,0,0,1-2.7-7.21,16.94,16.94,0,0,1,1.66-7.63,12.39,12.39,0,0,1,11.45-7,10.06,10.06,0,0,1,7.46,2.65,9.76,9.76,0,0,1,2.65,7.21A16.94,16.94,0,0,1,160.26,57Z"/><path id="Caminho_607" data-name="Caminho 607" class="cls-1" d="M173.44,54.71a25,25,0,0,0,.16,2.87,19.59,19.59,0,0,0,2.45,7.78,17.84,17.84,0,0,0,7,6.92,20.63,20.63,0,0,0,23.29-2.73L205.43,74H217.7l3.21-16.09a23.27,23.27,0,0,1-.22-3.23,26.51,26.51,0,0,1,3.36-13.31c.07-.14.16-.27.24-.4l.51-2.53,5.18-26H217l-4.55,22.8a13.46,13.46,0,0,0-5.85-4.89,20.71,20.71,0,0,0-8.58-1.66,23.83,23.83,0,0,0-12.43,3.36,24.15,24.15,0,0,0-8.91,9.28A25.59,25.59,0,0,0,175,45.14c-.07.22-.14.4-.21.61A28.39,28.39,0,0,0,173.44,54.71ZM208.1,57a12.42,12.42,0,0,1-11.45,7,10.28,10.28,0,0,1-7.51-2.66,9.67,9.67,0,0,1-2.69-7.21,16.81,16.81,0,0,1,1.66-7.63,12.39,12.39,0,0,1,11.45-7,10.21,10.21,0,0,1,7.5,2.65,9.63,9.63,0,0,1,2.69,7.21A16.8,16.8,0,0,1,208.1,57Z"/><path id="Caminho_608" data-name="Caminho 608" class="cls-1" d="M224.05,41.4a26.6,26.6,0,0,0-3.35,13.31,23.27,23.27,0,0,0,.22,3.23,18.85,18.85,0,0,0,2.55,7.3,18,18,0,0,0,8,7,27.93,27.93,0,0,0,12.06,2.45,33.69,33.69,0,0,0,10.11-1.49,25.69,25.69,0,0,0,8.54-4.47l-5.39-8.54a16.51,16.51,0,0,1-5.43,3.07,19.71,19.71,0,0,1-6.51,1.07q-10.86,0-11.52-9.11h34L268,51.6a28,28,0,0,0,.18-3.18,23.35,23.35,0,0,0-.24-3.34,19,19,0,0,0-2.37-7,17.38,17.38,0,0,0-7.38-6.88A24.63,24.63,0,0,0,247,28.77a27.35,27.35,0,0,0-13.6,3.36,24.14,24.14,0,0,0-7.71,6.79c-.48.66-.94,1.36-1.37,2.08C224.22,41.14,224.13,41.27,224.05,41.4Zm10.16,6.26a13.11,13.11,0,0,1,4.48-6.75,12.2,12.2,0,0,1,7.71-2.45,10.37,10.37,0,0,1,7.25,2.45,8.67,8.67,0,0,1,2.69,6.75Z"/><path id="Caminho_609" data-name="Caminho 609" class="cls-1" d="M267.3,55.21,263.56,74h12.93l4.31-21.56a15.11,15.11,0,0,1,4.77-9,14.28,14.28,0,0,1,9.41-2.9c.44,0,1.43.05,3,.16l1.79-9.18.53-2.76a30.15,30.15,0,0,0-9.66,1.41,16.85,16.85,0,0,0-6.68,4.23l-.32.33.09-.46,1-4.84H272.43L269.32,45,268,51.61Z"/><path id="Caminho_610" data-name="Caminho 610" class="cls-1" d="M305.78,74,312.4,40.7l2.41-12.12H301.72l-.6,3L292.68,74Z"/><path id="Caminho_611" data-name="Caminho 611" class="cls-1" d="M310.46,54.71a20.94,20.94,0,0,0,2.61,10.65,17.84,17.84,0,0,0,1.18,1.79l.09-.47h12.93l-1.51,7.64a20.68,20.68,0,0,0,3.93.37,19.56,19.56,0,0,0,13.68-5.06l-.83,4.4h12.28l8.87-44.6H350.76l-1.17,6q-4.21-6.72-14.5-6.71a23.86,23.86,0,0,0-12.44,3.35,24.19,24.19,0,0,0-8.83,9.16l-.08.13A27,27,0,0,0,310.46,54.71ZM345.11,57a12.41,12.41,0,0,1-11.44,7,10.26,10.26,0,0,1-7.51-2.65,9.7,9.7,0,0,1-2.69-7.21,16.7,16.7,0,0,1,1.66-7.64,12.4,12.4,0,0,1,11.44-7,10.22,10.22,0,0,1,7.51,2.65,9.7,9.7,0,0,1,2.69,7.21A16.78,16.78,0,0,1,345.11,57Z"/><path id="Caminho_612" data-name="Caminho 612" class="cls-1" d="M41.52,106.22a21.24,21.24,0,0,1-.38-3.08,8,8,0,0,0-1.86-3.47A12.82,12.82,0,0,0,34,96.23a60.18,60.18,0,0,0-7.75-2,39.2,39.2,0,0,1-6.38-1.69A2.66,2.66,0,0,1,18,90.06a3.61,3.61,0,0,1,2.21-3.15,13.28,13.28,0,0,1,6.42-1.25,26.09,26.09,0,0,1,10.75,2.12,22.58,22.58,0,0,1,2.44,1.27l4.64-9.44A26.87,26.87,0,0,0,37,76.87a41.06,41.06,0,0,0-9-1A28.58,28.58,0,0,0,11.73,80,13.15,13.15,0,0,0,5.55,91.54a9.43,9.43,0,0,0,2.28,6.68,13.2,13.2,0,0,0,5.39,3.52,56.65,56.65,0,0,0,7.92,2,40.53,40.53,0,0,1,6.13,1.57,2.56,2.56,0,0,1,1.91,2.41A3.47,3.47,0,0,1,27,110.9,14.63,14.63,0,0,1,20.48,112a31.11,31.11,0,0,1-8.42-1.16A24.83,24.83,0,0,1,5,107.79l-5,9.37a23.82,23.82,0,0,0,8.08,3.36,45.73,45.73,0,0,0,11,1.28,29.29,29.29,0,0,0,16.21-4.06,12.82,12.82,0,0,0,6.17-9.81,16.32,16.32,0,0,0,.09-1.71Z"/><path id="Caminho_613" data-name="Caminho 613" class="cls-1" d="M88.42,98.72q.17-1.59.18-3.18A20.27,20.27,0,0,0,86,85.18a17.44,17.44,0,0,0-7.38-6.88,21,21,0,0,0-4-1.51,27.76,27.76,0,0,0-7.25-.9,27.24,27.24,0,0,0-13.6,3.36,24.08,24.08,0,0,0-9.33,9.29,25.23,25.23,0,0,0-2.57,6.54,29,29,0,0,0-.79,6.76c0,.45,0,.88,0,1.32a21.28,21.28,0,0,0,.38,3.07c.11.57.26,1.13.42,1.68a18.57,18.57,0,0,0,2,4.45,18.08,18.08,0,0,0,8,7A28,28,0,0,0,63.9,121.8,34,34,0,0,0,74,120.32a25.71,25.71,0,0,0,8.54-4.48l-5.39-8.54a16.61,16.61,0,0,1-5.43,3.07,19.8,19.8,0,0,1-6.51,1.08q-10.86,0-11.52-9.12h34ZM59.08,88a12.19,12.19,0,0,1,7.72-2.45A10.37,10.37,0,0,1,74.05,88a8.61,8.61,0,0,1,2.69,6.75H54.62A13.15,13.15,0,0,1,59.09,88Z"/><path id="Caminho_614" data-name="Caminho 614" class="cls-1" d="M118.66,86.28l2-10.4A29.84,29.84,0,0,0,111,77.29a16.87,16.87,0,0,0-7,4.56l1.08-5.3H92.84L88.43,98.72l-.71,3.61L84,121.15H96.9l4.32-21.56a15.1,15.1,0,0,1,4.76-9,14.34,14.34,0,0,1,9.4-2.91q.62,0,2.67.15c.16-.28.31-.55.48-.81Z"/><path id="Caminho_615" data-name="Caminho 615" class="cls-1" d="M165.39,91.8l3.11-15.65H154.77l-1.05,5.44c-2.94-4-7.75-6.1-14.3-6.1a24.29,24.29,0,0,0-20.56,11l-.33.49q-.25.4-.48.81c-.11.18-.22.36-.32.54a27.53,27.53,0,0,0-3.33,13.5,21.32,21.32,0,0,0,2.67,10.85,18.47,18.47,0,0,0,7.15,7.07,21.27,21.27,0,0,0,22.9-2l-.71,3.76h13.07L163,103.81l1-5A24.3,24.3,0,0,1,165.39,91.8ZM133.5,89.34c.27-.2.54-.39.82-.57a12.25,12.25,0,0,1,6.59-1.8,9.89,9.89,0,0,1,7.23,2.54,9.35,9.35,0,0,1,2.58,6.94,16.51,16.51,0,0,1-1.62,7.44A12,12,0,0,1,138,110.72a9.88,9.88,0,0,1-7.22-2.54,9.34,9.34,0,0,1-2.58-6.93,14.2,14.2,0,0,1,5.3-11.91Z"/><path id="Caminho_616" data-name="Caminho 616" class="cls-1" d="M211.79,101.83a26.61,26.61,0,0,1,3.36-13.31c.07-.12.15-.24.21-.36l2.31-11.61H205.33l-1.41,7.29a12.74,12.74,0,0,0-5.94-6,20.39,20.39,0,0,0-9.16-2,25.31,25.31,0,0,0-12.72,3.24A23.62,23.62,0,0,0,165.39,91.8a24.38,24.38,0,0,0-1.39,7c0,.5,0,1,0,1.49a21.67,21.67,0,0,0,.28,3.51,17.34,17.34,0,0,0,9.42,12.94,21.78,21.78,0,0,0,10,2.28,19.35,19.35,0,0,0,13.46-4.86l.14-.12,0,.19-.3,1.72a13,13,0,0,1-14.23,11.56l-.36,0a29.93,29.93,0,0,1-8.82-1.28,19.07,19.07,0,0,1-6.84-3.53L160.56,132a27.77,27.77,0,0,0,9.33,4.4,45,45,0,0,0,11.9,1.48q11.85,0,18.94-5.8t9.57-18.41l1.28-6.39L212,105A24.47,24.47,0,0,1,211.79,101.83Zm-15.33,2.9a12.58,12.58,0,0,1-9.29,3.65,11,11,0,0,1-7.46-2.36A8.08,8.08,0,0,1,177,99.59a12.67,12.67,0,0,1,3.69-9.37,12.85,12.85,0,0,1,9.41-3.65,10.73,10.73,0,0,1,7.38,2.37,8.13,8.13,0,0,1,2.65,6.42,12.66,12.66,0,0,1-3.65,9.37Z"/><path id="Caminho_617" data-name="Caminho 617" class="cls-1" d="M242.42,110.37a19.69,19.69,0,0,1-6.5,1.07q-10.86,0-11.53-9.11h34l.72-3.61a28,28,0,0,0,.18-3.18,20.12,20.12,0,0,0-2.61-10.36,17.42,17.42,0,0,0-7.37-6.88,24.69,24.69,0,0,0-11.24-2.4,27.16,27.16,0,0,0-13.6,3.36,24.05,24.05,0,0,0-9.1,8.92c-.07.12-.15.24-.21.36a26.45,26.45,0,0,0-3.36,13.3,23.27,23.27,0,0,0,.22,3.23c.11.72.25,1.45.43,2.16a17.9,17.9,0,0,0,10.09,12.14,28,28,0,0,0,12.06,2.44,34,34,0,0,0,10.12-1.48,25.71,25.71,0,0,0,8.54-4.48l-1.43-2.26-4-6.28A16.58,16.58,0,0,1,242.42,110.37ZM229.78,88a12.18,12.18,0,0,1,7.71-2.45A10.4,10.4,0,0,1,244.75,88a8.64,8.64,0,0,1,2.69,6.75H225.3A13.17,13.17,0,0,1,229.78,88Z"/><path id="Caminho_618" data-name="Caminho 618" class="cls-1" d="M305.42,87.49h-2.11l.8-4a12.21,12.21,0,0,0-2.78-3.67,17.12,17.12,0,0,0-11.86-3.94,20.92,20.92,0,0,0-14.67,5.47l1-4.81H263.52l-4.41,22.18-.72,3.6-2.27,11.45-1.47,7.38h12.94l4.47-22.63a15,15,0,0,1,4.44-8.58,12,12,0,0,1,8.25-2.86,8,8,0,0,1,5.72,1.82,7,7,0,0,1,1.91,5.3,13.81,13.81,0,0,1-.33,3.07l-4.81,23.88h12.93l5-24.71c0-.08,0-.16.05-.23a25.61,25.61,0,0,0,.54-5.16A21.13,21.13,0,0,0,305.42,87.49Z"/><path id="Caminho_619" data-name="Caminho 619" class="cls-1" d="M329.19,110a10.2,10.2,0,0,1-5.07,1.48q-4.72,0-4.72-4.31a8,8,0,0,1,.16-1.82l3.57-17.91h8.46a24.32,24.32,0,0,1,3.52-4.38l1.11-5.57h-11.1l.63-3.21,1.52-7.65H314.34l-.1.48-2.06,10.38H305.3l-1.19,6-.8,4h6.88l-1.86,9.38-1.69,8.61a22.17,22.17,0,0,0-.43,3.9,11.43,11.43,0,0,0,3.82,9.11,14.86,14.86,0,0,0,10.11,3.32,21,21,0,0,0,11.11-2.65l-1.12-5.42-.63-3Z"/><path id="Caminho_620" data-name="Caminho 620" class="cls-1" d="M365.12,78.28a24.82,24.82,0,0,0-11.24-2.4c-.53,0-1.06,0-1.58,0a26.68,26.68,0,0,0-12,3.32,24.33,24.33,0,0,0-5.17,3.87,23.65,23.65,0,0,0-3.52,4.38l-.64,1a26.58,26.58,0,0,0-3.35,13.31,20.66,20.66,0,0,0,1.58,8.21l.31.66a18.53,18.53,0,0,0,.88,1.65c.2.33.41.64.62.94a18.28,18.28,0,0,0,7.34,6.07,28,28,0,0,0,12.06,2.45,34.35,34.35,0,0,0,10.12-1.49,25.71,25.71,0,0,0,8.54-4.48l-5.39-8.53a16.77,16.77,0,0,1-5.43,3.06,19.55,19.55,0,0,1-6.51,1.08q-10.86,0-11.53-9.12h34.16a35.21,35.21,0,0,0,.75-6.79,20.24,20.24,0,0,0-2.62-10.37A17.42,17.42,0,0,0,365.12,78.28ZM345.59,88a12.18,12.18,0,0,1,7.71-2.45A10.36,10.36,0,0,1,360.55,88a8.62,8.62,0,0,1,2.7,6.75H341.12A13.15,13.15,0,0,1,345.59,88Z"/><path id="Caminho_623" data-name="Caminho 623" class="cls-1" d="M305.09,24.24l.55.17a14.66,14.66,0,0,0,5.78.52,17.12,17.12,0,0,0,5.38-1.5,20,20,0,0,0,4.59-3,2.2,2.2,0,0,0,.31-.3A16.06,16.06,0,0,0,324,16.89,14,14,0,0,0,325.34,13a11.54,11.54,0,0,0-.06-4.46,10.5,10.5,0,0,0-1.88-4.1l-.09-.12-.07-.09a11.79,11.79,0,0,0-3.72-2.82A12.65,12.65,0,0,0,318,.73a13,13,0,0,0-2.69-.62A12.66,12.66,0,0,0,313,0a11.41,11.41,0,0,0-2.25.32,9.6,9.6,0,0,0-4.26,2.19A8.22,8.22,0,0,0,304,6.74l0,.15a6.87,6.87,0,0,0-.17,1l-.06.6c0,.16,0,.34,0,.51v.16a6.81,6.81,0,0,0,.22,1.34,3.62,3.62,0,0,0,.17.53l.09.23.11.26.18.33a5.26,5.26,0,0,0,2,2,7.27,7.27,0,0,0,1.33.61c.27.09.53.17.79.23a21.5,21.5,0,0,0,2.75.42l.83.1a1.7,1.7,0,0,0,.78-3.29l-.25-.08-.95-.32-.82-.27c-.44-.15-.79-.29-1.08-.42a3.58,3.58,0,0,1-1-.6.87.87,0,0,1-.17-.21l-.14-.21V9.1h0a2.07,2.07,0,0,1,.08-.42,3,3,0,0,1,.11-.32l.07-.18a3.67,3.67,0,0,1,.5-.83,3.2,3.2,0,0,1,.67-.6,5.56,5.56,0,0,1,4.19-.5,5.87,5.87,0,0,1,.82.23,6.64,6.64,0,0,1,2.78,1.79l0,.06,0,.05a4.17,4.17,0,0,1,.53,1.48,4.35,4.35,0,0,1-.09,1.72,7.11,7.11,0,0,1-.75,1.88,9.28,9.28,0,0,1-1.1,1.53l0,.06-.06,0a12.7,12.7,0,0,1-2.69,1.63,10.61,10.61,0,0,1-3.13.9,8.25,8.25,0,0,1-3-.16c-.21,0-.43-.12-.64-.19a7.71,7.71,0,0,1-2.07-1.08l-.23-.17a6.67,6.67,0,0,1-2.09-2,8.43,8.43,0,0,1-1.23-2.93,12.44,12.44,0,0,1-.27-3.55,16.46,16.46,0,0,1,.65-3.75l0-.09a2.1,2.1,0,0,0-3.79-1.69,16.66,16.66,0,0,0-2,4.62,15.93,15.93,0,0,0-.52,5.23,13.78,13.78,0,0,0,1.48,5.41,12.84,12.84,0,0,0,3.63,4.29A14.52,14.52,0,0,0,305.09,24.24Z"/></svg>