<svg id="Camada_1" data-name="Camada 1" xmlns="http://www.w3.org/2000/svg" viewBox="0 0 586.17 232.21"><defs><style>.cls-1{fill:#fff;}.cls-2{fill:#7f14ef;}.cls-3{fill:#f2116d;}</style></defs><title>logo.flat</title><g id="Grupo_7" data-name="Grupo 7"><path id="Caminho_577" data-name="Caminho 577" class="cls-1" d="M139.21,143.4a30.61,30.61,0,0,1,3.95,15.7,45.65,45.65,0,0,1-.27,4.82l6.68-33.59h18.59l-1.64,8a25.42,25.42,0,0,1,10.6-6.91,45.11,45.11,0,0,1,14.63-2.14l-3.06,15.76c.09.11.2.21.29.32a36.87,36.87,0,0,1,31.15-16.67c9.92,0,17.21,3.11,21.67,9.25l1.58-8.24h20.81l-4.72,23.7a35.85,35.85,0,0,1,16.23-19.21,38.34,38.34,0,0,1,19.27-4.9,31,31,0,0,1,13.88,3,19.33,19.33,0,0,1,9,9.11l2.14-11h18.71l-3.49,17.59A36.43,36.43,0,0,1,349,134.41a41.3,41.3,0,0,1,20.6-5.09,37.5,37.5,0,0,1,17,3.64,26.48,26.48,0,0,1,11.18,10.43,30.56,30.56,0,0,1,3.95,15.7,45.46,45.46,0,0,1-.27,4.81l6.68-33.59h18.6l-1.51,7.29a31.65,31.65,0,0,1,22.24-8.29,25.92,25.92,0,0,1,18,6,18.83,18.83,0,0,1,4.22,5.56l1.8-9h10.43L485,116.08a30.09,30.09,0,0,1-1.78-2.71,31.69,31.69,0,0,1-4-16.14,40.86,40.86,0,0,1,5-20.16l.11-.19a7.08,7.08,0,0,1-1.33-.42,9.16,9.16,0,0,1-.8-.46l-10,50.49H452.34l12.78-64.27a6.61,6.61,0,0,1-1.88-.14H463L460.33,76c-2.36-.17-3.86-.25-4.52-.25a21.77,21.77,0,0,0-14.26,4.39,23,23,0,0,0-7.22,13.69l-6.53,32.66H408.21L413.88,98H362.37q1,13.82,17.45,13.81a30,30,0,0,0,9.86-1.63,25.21,25.21,0,0,0,8.23-4.65l8.16,12.94a39.08,39.08,0,0,1-12.93,6.78,51.69,51.69,0,0,1-15.33,2.25,42.41,42.41,0,0,1-18.27-3.71,27.35,27.35,0,0,1-12.05-10.6,28.5,28.5,0,0,1-3.86-11.06l-4.88,24.43H320.16l1.38-6.78a31.26,31.26,0,0,1-35.29,4.14,27.13,27.13,0,0,1-10.6-10.49,29.73,29.73,0,0,1-3.72-11.78,37.26,37.26,0,0,1-17.63,20.76,42.89,42.89,0,0,1-21,5.14,40.38,40.38,0,0,1-17.9-3.77,28.06,28.06,0,0,1-11.93-10.6,29.76,29.76,0,0,1-4.2-15.89,41.18,41.18,0,0,1,1.66-11.77,33.5,33.5,0,0,1-14.66,12.4,54.13,54.13,0,0,1-22.67,4.4H144l-4.77,24.23H123a6.6,6.6,0,0,1-1,4.18,31.65,31.65,0,0,1,6,2.28A26.41,26.41,0,0,1,139.21,143.4Z"/><path id="Caminho_578" data-name="Caminho 578" class="cls-1" d="M274.11,82.77h-.17l-.3,0c.05.32.11.64.15,1C273.89,83.38,274,83.08,274.11,82.77Z"/><path id="Caminho_579" data-name="Caminho 579" class="cls-1" d="M206.46,74.2,206,74a3.45,3.45,0,0,1-.43-.23c-.18.95-.4,1.87-.64,2.77C205.38,75.75,205.91,75,206.46,74.2Z"/><path id="Caminho_580" data-name="Caminho 580" class="cls-1" d="M181.45,58.33a20,20,0,0,0-12.12-3.14h-16L147.23,85.7h17.2a23.66,23.66,0,0,0,15.7-4.65,16.39,16.39,0,0,0,5.53-13.31A11,11,0,0,0,181.45,58.33Z"/><path id="Caminho_581" data-name="Caminho 581" class="cls-1" d="M311.25,74.15a18.79,18.79,0,0,0-17.34,10.68,25.51,25.51,0,0,0-2.51,11.56,14.61,14.61,0,0,0,4.08,10.92,15.49,15.49,0,0,0,11.37,4,18.79,18.79,0,0,0,17.34-10.68,25.51,25.51,0,0,0,2.51-11.56,14.65,14.65,0,0,0-4.08-10.92A15.49,15.49,0,0,0,311.25,74.15Z"/><path id="Caminho_582" data-name="Caminho 582" class="cls-1" d="M39.49,146a5.51,5.51,0,0,0-3.33,4.77,4,4,0,0,0,2.89,3.83,58.91,58.91,0,0,0,9.67,2.57,90.81,90.81,0,0,1,11.74,2.95,19.3,19.3,0,0,1,8,5.22,12.14,12.14,0,0,1,2.82,5.26c0-.65-.06-1.32-.06-2a43.62,43.62,0,0,1,1.19-10.24A6.51,6.51,0,0,1,67,156c-.23-.28-.46-.55-.7-.81a6.53,6.53,0,0,1-.76-7.86,39.21,39.21,0,0,0-16.27-3.22A20.15,20.15,0,0,0,39.49,146Z"/><path id="Caminho_583" data-name="Caminho 583" class="cls-1" d="M71.81,175.3a25.15,25.15,0,0,1-.13,2.6,3.76,3.76,0,0,1,.5-.07h.26c-.24-.83-.46-1.68-.64-2.54Z"/><path id="Caminho_584" data-name="Caminho 584" class="cls-1" d="M529.11,119.87a29.63,29.63,0,0,1-20.72,7.66,31.34,31.34,0,0,1-6-.56l-1,4.88h16.83l-1.68,8.43a37.12,37.12,0,0,1,7.84-5.86,40.31,40.31,0,0,1,18.2-5,6.57,6.57,0,0,1-.4-2.88H527.86Z"/><path id="Caminho_585" data-name="Caminho 585" class="cls-1" d="M125.2,158a13.12,13.12,0,0,0-4.08-10.24,15.78,15.78,0,0,0-11-3.7,18.52,18.52,0,0,0-11.68,3.7A20,20,0,0,0,91.67,158Z"/><path id="Caminho_586" data-name="Caminho 586" class="cls-1" d="M350.82,73.33a5.7,5.7,0,0,1-.91-.4c-.15-.08-.27-.18-.41-.26l-.76,3.82A35.89,35.89,0,0,1,350.82,73.33Z"/><path id="Caminho_587" data-name="Caminho 587" class="cls-1" d="M518.83,74.15a18.8,18.8,0,0,0-17.35,10.68A25.51,25.51,0,0,0,499,96.39a14.62,14.62,0,0,0,4.09,10.92,15.48,15.48,0,0,0,11.36,4,18.8,18.8,0,0,0,17.35-10.68,25.51,25.51,0,0,0,2.51-11.56,14.65,14.65,0,0,0-4.08-10.92A15.49,15.49,0,0,0,518.83,74.15Z"/><path id="Caminho_588" data-name="Caminho 588" class="cls-1" d="M493.05,174.05a12.12,12.12,0,0,0-.25,2.76q0,6.52,7.16,6.53a15.33,15.33,0,0,0,7.68-2.25,31.22,31.22,0,0,1-2.4-12.44,40.09,40.09,0,0,1,5.08-20.15c.31-.54.65-1.06,1-1.57H498.46Z"/><path id="Caminho_589" data-name="Caminho 589" class="cls-1" d="M439.09,66.49l-.35-.2-.14.7Z"/><path id="Caminho_590" data-name="Caminho 590" class="cls-1" d="M382.21,72.65a18.46,18.46,0,0,0-11.68,3.7,19.93,19.93,0,0,0-6.78,10.24h33.53a13.18,13.18,0,0,0-4.08-10.24A15.73,15.73,0,0,0,382.21,72.65Z"/><path id="Caminho_591" data-name="Caminho 591" class="cls-1" d="M415,92.55l2-10a5.81,5.81,0,0,1-.71.11,6.09,6.09,0,0,1-1.35-.07,35.91,35.91,0,0,1,.36,5.07A46.23,46.23,0,0,1,415,92.55Z"/><path id="Caminho_592" data-name="Caminho 592" class="cls-1" d="M238.9,74.15a18.78,18.78,0,0,0-17.34,10.68A25.39,25.39,0,0,0,219,96.39a14.62,14.62,0,0,0,4.09,10.92,15.48,15.48,0,0,0,11.36,4,18.8,18.8,0,0,0,10.18-2.83,19,19,0,0,0,7-7.85,25.51,25.51,0,0,0,2.51-11.56,14.76,14.76,0,0,0-4-10.92A15.31,15.31,0,0,0,238.9,74.15Z"/><path id="Caminho_593" data-name="Caminho 593" class="cls-1" d="M379.71,147.74a15.74,15.74,0,0,0-11-3.71A18.47,18.47,0,0,0,357,147.74,19.87,19.87,0,0,0,350.26,158h33.53A13.11,13.11,0,0,0,379.71,147.74Z"/><path id="Caminho_594" data-name="Caminho 594" class="cls-1" d="M329.45,176.91c.11,0,.21,0,.32-.06a6.57,6.57,0,0,1,1,0,30.46,30.46,0,0,1-.64-3.27Z"/><path id="Caminho_595" data-name="Caminho 595" class="cls-1" d="M471.62,146.92a29.61,29.61,0,0,1,.46,5.4,38,38,0,0,1-.81,7.81,6.55,6.55,0,0,1,3.76.44l.3.13a5.2,5.2,0,0,1,.72.42l2.81-14.2Z"/><path id="Caminho_596" data-name="Caminho 596" class="cls-1" d="M308.06,149.12a16.24,16.24,0,0,0-11.18-3.59,19.45,19.45,0,0,0-14.25,5.53,19.08,19.08,0,0,0-5.59,14.2,12.2,12.2,0,0,0,4.14,9.73,16.7,16.7,0,0,0,11.31,3.58,18.92,18.92,0,0,0,19.59-18.22q0-.75,0-1.5A12.36,12.36,0,0,0,308.06,149.12Z"/><path id="Caminho_597" data-name="Caminho 597" class="cls-1" d="M555.16,147.74a15.74,15.74,0,0,0-11-3.71,18.47,18.47,0,0,0-11.68,3.71A19.87,19.87,0,0,0,525.71,158h33.55A13.12,13.12,0,0,0,555.16,147.74Z"/><path id="Caminho_598" data-name="Caminho 598" class="cls-1" d="M508.11,182.09l1,4.6a3.7,3.7,0,0,1,.33-.21,5.94,5.94,0,0,1,1-.46c-.32-.47-.64-.93-.94-1.42C509,183.79,508.52,183,508.11,182.09Z"/><path id="Caminho_599" data-name="Caminho 599" class="cls-1" d="M348.88,169.4q1,13.82,17.45,13.81a30,30,0,0,0,9.86-1.63,25.13,25.13,0,0,0,8.23-4.65l6,9.5a6.53,6.53,0,0,1,6.46.25l.06,0,3.45-17.34Z"/><path id="Caminho_600" data-name="Caminho 600" class="cls-1" d="M207.06,178.27A15,15,0,0,0,218,182.12a18.2,18.2,0,0,0,16.8-10.34,24.91,24.91,0,0,0,2.45-11.29,14.13,14.13,0,0,0-3.9-10.5,15.05,15.05,0,0,0-11-3.86,18.55,18.55,0,0,0-10,2.74c-.43.27-.84.56-1.24.86a21.5,21.5,0,0,0-8,18A14.14,14.14,0,0,0,207.06,178.27Z"/><path id="Caminho_601" data-name="Caminho 601" class="cls-1" d="M257.39,164l-1.53,7.65c.2,0,.39-.08.59-.1a6.83,6.83,0,0,1,1.28,0,33.87,33.87,0,0,1-.42-5.32C257.32,165.5,257.35,164.74,257.39,164Z"/><path id="Caminho_602" data-name="Caminho 602" class="cls-1" d="M307.6,187.28l.16.11.05-.28Z"/><path id="Caminho_603" data-name="Caminho 603" class="cls-1" d="M581,138.91h0A35.3,35.3,0,0,0,566.07,125a41,41,0,0,0-9.55-3.38l12.11-60.93a8.91,8.91,0,0,0-7-10.49,8.49,8.49,0,0,0-1.74-.18H540.3A8.91,8.91,0,0,0,534,52.61,40,40,0,0,0,516.56,49a45.08,45.08,0,0,0-22.28,5.69A8.89,8.89,0,0,0,490.36,50l-.56.28a33.73,33.73,0,0,1-10.6,2.93,28.51,28.51,0,0,1-3.21.17,29.22,29.22,0,0,1-8.56-1.25c-.34-.1-.73-.22-1.11-.35a29.19,29.19,0,0,1-5.55-2.66,51.44,51.44,0,0,0-14.45,2.55l-.65.22A8.94,8.94,0,0,0,440.24,50H421.65a9,9,0,0,0-8.75,7.18l-.43,2.16a36.25,36.25,0,0,0-8.35-5.74,46.25,46.25,0,0,0-21-4.6,51.67,51.67,0,0,0-20.59,4.06l3.6-18a8.93,8.93,0,0,0-7-10.5,9.35,9.35,0,0,0-1.75-.17H337.75A9,9,0,0,0,329,31.59L324.92,52A40.84,40.84,0,0,0,309,49a45.2,45.2,0,0,0-34,15.07,37.5,37.5,0,0,0-13.05-10.39A49.25,49.25,0,0,0,240,49a51.61,51.61,0,0,0-25.3,6.27l-.86.49a32,32,0,0,0-11-16.91c-7.59-6.1-18-9.19-31-9.19H136.3a8.94,8.94,0,0,0-8.74,7.17l-16.71,83.56a50.23,50.23,0,0,0-24.8,6.23c-1.18.66-2.32,1.37-3.42,2.12a9.3,9.3,0,0,0-2-1.54,50.4,50.4,0,0,0-13.74-5.08,70.51,70.51,0,0,0-15.66-1.73,52.11,52.11,0,0,0-29.53,7.79,28.79,28.79,0,0,0-13.3,24.86,23,23,0,0,0,5.68,16,8.92,8.92,0,0,0-5.52,4.42L1,187.71a9,9,0,0,0,2.68,11.44A45,45,0,0,0,19,205.63a77.74,77.74,0,0,0,18.79,2.21,53.21,53.21,0,0,0,29.4-7.59,32,32,0,0,0,5.61-4.57,37.71,37.71,0,0,0,10.85,7.61,51.5,51.5,0,0,0,22.08,4.56,60.46,60.46,0,0,0,18-2.67,49.39,49.39,0,0,0,5.25-2c.09.12.18.24.28.35a8.85,8.85,0,0,0,6.89,3.26h19.59a8.94,8.94,0,0,0,8.75-7.17L171,167a17.36,17.36,0,0,1,3.07-7.47,55.37,55.37,0,0,0-.74,9.09,41.18,41.18,0,0,0,5.24,20.9,36.58,36.58,0,0,0,14.28,14.07A39.23,39.23,0,0,0,212,208.45a42.27,42.27,0,0,0,14.09-2.31,8.89,8.89,0,0,0,4.66,1.31h15.32l-1.35,2.05a8.93,8.93,0,0,0,2.14,12,51,51,0,0,0,17.09,8.1,76.6,76.6,0,0,0,20.38,2.57c14,0,25.59-3.63,34.36-10.81a49.46,49.46,0,0,0,15.13-23.48,38.72,38.72,0,0,0,8.44,5.37,51.5,51.5,0,0,0,22.08,4.56,60.4,60.4,0,0,0,18-2.67,48.75,48.75,0,0,0,5.26-2c.09.12.18.24.28.35a8.85,8.85,0,0,0,6.89,3.26h19.59a8.93,8.93,0,0,0,8.75-7.19l6.78-34.24a14.44,14.44,0,0,1,3.85-8.06,9.39,9.39,0,0,1,6.63-2.12,7.06,7.06,0,0,1,2.46.32,5.16,5.16,0,0,1,.18,1.56,11.55,11.55,0,0,1-.29,2.69,1.42,1.42,0,0,1,0,.2l-7.29,36.18a8.93,8.93,0,0,0,7,10.5,9.35,9.35,0,0,0,1.75.17h19.59a8.94,8.94,0,0,0,8.62-6.62l.47.41A31.25,31.25,0,0,0,494,207.86a40.63,40.63,0,0,0,21.52-5.34l.32-.2c.64.34,1.29.67,2,1a51.36,51.36,0,0,0,22.08,4.56,60.71,60.71,0,0,0,18-2.66,48.06,48.06,0,0,0,15.87-8.35,8.91,8.91,0,0,0,2-11.73l-4.28-6.79h4.78a8.94,8.94,0,0,0,8.74-7.17,61.73,61.73,0,0,0,1.3-12A39.39,39.39,0,0,0,581,138.91Zm-4.88,30.49H524.32q1,13.8,17.46,13.81a29.78,29.78,0,0,0,9.86-1.64,25.21,25.21,0,0,0,8.23-4.64L568,189.86a38.86,38.86,0,0,1-12.94,6.78,51.3,51.3,0,0,1-15.32,2.25,42.41,42.41,0,0,1-18.27-3.7,27.57,27.57,0,0,1-11.12-9.2,7,7,0,0,0-1,.46l-.32.22,1.7,8.2a31.63,31.63,0,0,1-16.83,4,22.47,22.47,0,0,1-15.32-5,17.32,17.32,0,0,1-5.78-13.81,32.59,32.59,0,0,1,.64-5.91L476,161.1a6.44,6.44,0,0,0-.72-.42l-.3-.13a6.55,6.55,0,0,0-3.76-.44c0,.12,0,.23-.07.36l-7.53,37.42h-19.6l7.29-36.17a20.7,20.7,0,0,0,.5-4.65,10.58,10.58,0,0,0-2.89-8,12.09,12.09,0,0,0-8.67-2.77,18.3,18.3,0,0,0-12.5,4.34,22.6,22.6,0,0,0-6.72,13l-6.78,34.29H394.7l2.22-11.18-.06-.05a6.55,6.55,0,0,0-6.47-.24l2.17,3.43a38.72,38.72,0,0,1-12.93,6.78,51.41,51.41,0,0,1-15.33,2.25,42.26,42.26,0,0,1-18.27-3.7A27.37,27.37,0,0,1,334,184.59a27.68,27.68,0,0,1-3.23-7.79,5.47,5.47,0,0,0-1,0,1.83,1.83,0,0,0-.32.07l-1.93,9.69q-3.76,19.1-14.51,27.88t-28.69,8.79a67.73,67.73,0,0,1-18-2.25,42.06,42.06,0,0,1-14.13-6.66l9.3-14.19a29.06,29.06,0,0,0,10.36,5.34,45.5,45.5,0,0,0,13.37,2,19.65,19.65,0,0,0,22-16.92c0-.18.05-.36.07-.54l.45-2.6-.16-.11a29.25,29.25,0,0,1-20.39,7.35,33,33,0,0,1-15.2-3.45,26.42,26.42,0,0,1-10.73-9.86,26.11,26.11,0,0,1-3.51-9.74,6.87,6.87,0,0,0-1.28,0,5.58,5.58,0,0,0-.59.1l-5.34,26.85H230.74l1.07-5.69a32.22,32.22,0,0,1-34.69,3,27.9,27.9,0,0,1-10.84-10.71,32.45,32.45,0,0,1-4-16.44,41.66,41.66,0,0,1,5-20.44l.48-.82c-2.06-.14-3.41-.21-4-.21a21.77,21.77,0,0,0-14.26,4.39,23,23,0,0,0-7.22,13.69l-6.53,32.66H136.13l5.67-28.51H90.29q1,13.8,17.46,13.81a29.87,29.87,0,0,0,9.86-1.64,25.06,25.06,0,0,0,8.22-4.64L134,189.87a38.86,38.86,0,0,1-12.94,6.78,51.3,51.3,0,0,1-15.32,2.25,42.45,42.45,0,0,1-18.28-3.7,27.4,27.4,0,0,1-12-10.6,27.89,27.89,0,0,1-3-6.74H72.2a5,5,0,0,0-.51.06,19.43,19.43,0,0,1-9.34,14.86,44.38,44.38,0,0,1-24.56,6.15,68.64,68.64,0,0,1-16.64-2A36.09,36.09,0,0,1,8.91,191.9l7.53-14.2a37.7,37.7,0,0,0,10.74,4.65,47.36,47.36,0,0,0,12.74,1.76,22.36,22.36,0,0,0,9.93-1.69,5.27,5.27,0,0,0,3.26-4.84,3.85,3.85,0,0,0-2.89-3.64,59.75,59.75,0,0,0-9.29-2.39,87,87,0,0,1-12-3,20,20,0,0,1-8.16-5.34,14.26,14.26,0,0,1-3.46-10.11,19.92,19.92,0,0,1,9.36-17.46,43.38,43.38,0,0,1,24.55-6.28,61.76,61.76,0,0,1,13.69,1.51A41.53,41.53,0,0,1,76.22,135l-7,14.3a30.89,30.89,0,0,0-3.7-1.92,6.54,6.54,0,0,0,.75,7.86c.25.26.48.53.71.81a6.53,6.53,0,0,0,5.44,2.37,38.16,38.16,0,0,1,3.9-9.92,36.37,36.37,0,0,1,14.13-14.06A41.24,41.24,0,0,1,111,129.35a42.43,42.43,0,0,1,11,1.36,6.5,6.5,0,0,0,1-4.17h-4.25L136.3,38.62h35.54q16.46,0,25.44,7.22a24.44,24.44,0,0,1,9,20.16,40.8,40.8,0,0,1-.72,7.8c.15.08.28.16.43.23a4.81,4.81,0,0,0,.5.18,38.25,38.25,0,0,1,12.6-11.1,42.55,42.55,0,0,1,21-5.14,40.36,40.36,0,0,1,18,3.77,27.63,27.63,0,0,1,15.63,21c.1,0,.2,0,.31,0h.16a40.55,40.55,0,0,1,2.54-5.67,36.66,36.66,0,0,1,13.49-14.06A36.22,36.22,0,0,1,309,58a31.49,31.49,0,0,1,13,2.51,20.56,20.56,0,0,1,8.86,7.41l6.91-34.53h19.59L349.5,72.67c.14.08.26.18.41.26a5.7,5.7,0,0,0,.91.4,36.53,36.53,0,0,1,11.67-10.28A41.4,41.4,0,0,1,383.09,58a37.38,37.38,0,0,1,17,3.65A26.39,26.39,0,0,1,411.29,72a28.87,28.87,0,0,1,3.59,10.63,6.79,6.79,0,0,0,1.35.07,5.52,5.52,0,0,0,.71-.11L421.65,59h18.59l-1.49,7.34.34.2a25.38,25.38,0,0,1,10.13-6.41A45.07,45.07,0,0,1,463.85,58L463,62.14h.2a7,7,0,0,0,1.88.14L466,57.7h19.84l-3.66,18.36a5.81,5.81,0,0,0,2.13.88,36.72,36.72,0,0,1,13.39-13.88A36.17,36.17,0,0,1,516.57,58q15.57,0,22,10.18L540.31,59H559.9l-13.44,67.57h-4.2a6.37,6.37,0,0,0,.4,2.87c.79,0,1.58-.06,2.39-.06a37.54,37.54,0,0,1,17,3.64,26.37,26.37,0,0,1,11.17,10.42,30.62,30.62,0,0,1,4,15.7A52.21,52.21,0,0,1,576.07,169.4Z"/><path id="Caminho_604" data-name="Caminho 604" class="cls-1" d="M188.49,146.16c.16-.25.32-.5.5-.75-.09-.11-.19-.21-.29-.32Z"/><path id="Caminho_605" data-name="Caminho 605" class="cls-2" d="M144,102.28h19.59a54.13,54.13,0,0,0,22.67-4.4,33.59,33.59,0,0,0,14.67-12.4,36.58,36.58,0,0,1,3.61-8.32c.12-.21.26-.4.38-.6.25-.91.47-1.83.64-2.77a41,41,0,0,0,.72-7.81,24.46,24.46,0,0,0-9-20.16q-9-7.22-25.44-7.22H136.3l-17.58,87.92h20.47Zm36.17-21.23a23.75,23.75,0,0,1-15.7,4.65h-17.2l6.15-30.51h16a20,20,0,0,1,12.12,3.14,11,11,0,0,1,4.21,9.42,16.4,16.4,0,0,1-5.53,13.31Z"/><path id="Caminho_606" data-name="Caminho 606" class="cls-2" d="M204.5,77.17a36.58,36.58,0,0,0-3.61,8.32,41.19,41.19,0,0,0-1.67,11.77,29.68,29.68,0,0,0,4.21,15.89,28,28,0,0,0,11.93,10.6,40.35,40.35,0,0,0,17.9,3.77,42.85,42.85,0,0,0,21-5.14,37.22,37.22,0,0,0,17.63-20.76,42.3,42.3,0,0,1-.23-4.36,43.13,43.13,0,0,1,2.1-13.57c0-.32-.1-.64-.15-1a27.68,27.68,0,0,0-15.64-21A40.19,40.19,0,0,0,240,58a42.59,42.59,0,0,0-21,5.13A38.18,38.18,0,0,0,206.48,74.2q-.82,1.14-1.59,2.37Q204.68,76.87,204.5,77.17Zm47.21,23.48a19,19,0,0,1-7,7.85,18.74,18.74,0,0,1-10.17,2.83,15.49,15.49,0,0,1-11.37-4,14.61,14.61,0,0,1-4.08-10.92,25.51,25.51,0,0,1,2.51-11.56,18.79,18.79,0,0,1,17.34-10.68,15.35,15.35,0,0,1,11.31,4,14.8,14.8,0,0,1,4,10.92,25.51,25.51,0,0,1-2.51,11.56Z"/><path id="Caminho_607" data-name="Caminho 607" class="cls-2" d="M271.69,97.26a42.3,42.3,0,0,0,.23,4.36,29.73,29.73,0,0,0,3.72,11.78,27.2,27.2,0,0,0,10.6,10.49,31.26,31.26,0,0,0,35.29-4.15l-1.38,6.78h18.59l4.87-24.37a34.75,34.75,0,0,1-.35-4.89,40.17,40.17,0,0,1,5.09-20.16c.12-.21.25-.4.37-.61l.77-3.83,7.84-39.33H337.74l-6.9,34.54A20.49,20.49,0,0,0,322,60.46,31.33,31.33,0,0,0,309,58,36,36,0,0,0,290.14,63,36.66,36.66,0,0,0,276.65,77.1a40,40,0,0,0-2.54,5.67c-.1.32-.21.61-.32.92A43.09,43.09,0,0,0,271.69,97.26Zm52.5,3.39a18.8,18.8,0,0,1-17.35,10.68,15.48,15.48,0,0,1-11.36-4,14.62,14.62,0,0,1-4.09-10.92,25.39,25.39,0,0,1,2.52-11.56,18.78,18.78,0,0,1,17.34-10.68,15.52,15.52,0,0,1,11.37,4,14.65,14.65,0,0,1,4.08,10.92,25.51,25.51,0,0,1-2.51,11.56Z"/><path id="Caminho_608" data-name="Caminho 608" class="cls-2" d="M348.36,77.1a40.27,40.27,0,0,0-5.09,20.16,36.31,36.31,0,0,0,.35,4.89,28.64,28.64,0,0,0,3.85,11.06,27.37,27.37,0,0,0,12.06,10.6,42.26,42.26,0,0,0,18.27,3.7,51.61,51.61,0,0,0,15.32-2.24,38.87,38.87,0,0,0,12.94-6.79l-8.16-12.93a25.42,25.42,0,0,1-8.23,4.65,30,30,0,0,1-9.86,1.63q-16.46,0-17.46-13.81h51.51L415,92.56a45.66,45.66,0,0,0,.28-4.82,35.81,35.81,0,0,0-.36-5.07A28.83,28.83,0,0,0,411.27,72a26.42,26.42,0,0,0-11.18-10.43,37.47,37.47,0,0,0-17-3.64,41.3,41.3,0,0,0-20.6,5.09A36.5,36.5,0,0,0,348.72,76.5C348.61,76.7,348.48,76.9,348.36,77.1Zm15.39,9.49a19.93,19.93,0,0,1,6.78-10.24,18.46,18.46,0,0,1,11.68-3.7,15.73,15.73,0,0,1,11,3.7,13.18,13.18,0,0,1,4.08,10.24Z"/><path id="Caminho_609" data-name="Caminho 609" class="cls-2" d="M413.88,98l-5.67,28.51H427.8l6.53-32.66a23,23,0,0,1,7.22-13.69,21.77,21.77,0,0,1,14.26-4.39c.67,0,2.17.08,4.52.25L463,62.13l.82-4.17a45.12,45.12,0,0,0-14.64,2.13,25.46,25.46,0,0,0-10.12,6.41l-.49.5.14-.7L440.23,59H421.64l-4.7,23.66-2,9.95Z"/><path id="Caminho_610" data-name="Caminho 610" class="cls-2" d="M472.17,126.52,482.2,76l3.66-18.36H466l-.91,4.58-12.78,64.26Z"/><path id="Caminho_611" data-name="Caminho 611" class="cls-2" d="M479.26,97.26a31.69,31.69,0,0,0,4,16.14,28.74,28.74,0,0,0,1.78,2.71l.14-.71h19.6L502.44,127a31.33,31.33,0,0,0,6,.55,29.63,29.63,0,0,0,20.72-7.66l-1.25,6.66h18.59L559.9,59H540.31l-1.76,9.17Q532.15,58,516.57,58a36,36,0,0,0-18.84,5.09,36.52,36.52,0,0,0-13.38,13.87l-.12.19A41,41,0,0,0,479.26,97.26Zm52.5,3.4a18.8,18.8,0,0,1-17.34,10.67,15.49,15.49,0,0,1-11.37-4A14.64,14.64,0,0,1,499,96.39a25.57,25.57,0,0,1,2.51-11.56,18.79,18.79,0,0,1,17.35-10.67,15.52,15.52,0,0,1,11.36,4,14.63,14.63,0,0,1,4.08,10.92,25.51,25.51,0,0,1-2.51,11.56Z"/><path id="Caminho_612" data-name="Caminho 612" class="cls-3" d="M71.83,175.3a33.31,33.31,0,0,1-.57-4.66,12.19,12.19,0,0,0-2.82-5.26,19.41,19.41,0,0,0-8-5.21,89.61,89.61,0,0,0-11.74-2.95,58.65,58.65,0,0,1-9.67-2.57,4,4,0,0,1-2.89-3.83A5.48,5.48,0,0,1,39.5,146a20.18,20.18,0,0,1,9.74-1.89,39.21,39.21,0,0,1,16.27,3.22,32.42,32.42,0,0,1,3.7,1.92l7-14.31a41.37,41.37,0,0,0-11.3-4.15,62.43,62.43,0,0,0-13.69-1.51A43.33,43.33,0,0,0,26.7,135.6a19.93,19.93,0,0,0-9.36,17.46,14.21,14.21,0,0,0,3.46,10.11A19.81,19.81,0,0,0,29,168.51a86.93,86.93,0,0,0,12,3,59.56,59.56,0,0,1,9.3,2.38,3.85,3.85,0,0,1,2.89,3.64,5.29,5.29,0,0,1-3.27,4.84,22.47,22.47,0,0,1-9.92,1.7,47.78,47.78,0,0,1-12.75-1.76,37.8,37.8,0,0,1-10.73-4.65L8.93,191.87A36.16,36.16,0,0,0,21.18,197a69,69,0,0,0,16.64,1.95,44.42,44.42,0,0,0,24.55-6.16,19.45,19.45,0,0,0,9.35-14.86,25,25,0,0,0,.14-2.59Z"/><path id="Caminho_613" data-name="Caminho 613" class="cls-3" d="M142.88,163.94a43.13,43.13,0,0,0,.27-4.82,30.56,30.56,0,0,0-4-15.7A26.39,26.39,0,0,0,128,133a31.85,31.85,0,0,0-6-2.29,42.43,42.43,0,0,0-11-1.36,41.3,41.3,0,0,0-20.6,5.09,36.6,36.6,0,0,0-14.13,14.07,38.31,38.31,0,0,0-3.9,9.91,43.15,43.15,0,0,0-1.18,10.24c0,.68,0,1.34,0,2a33.15,33.15,0,0,0,.58,4.66,23.76,23.76,0,0,0,.64,2.55,27.1,27.1,0,0,0,15,17.34,42.46,42.46,0,0,0,18.28,3.71,51.62,51.62,0,0,0,15.32-2.25A39.07,39.07,0,0,0,134,189.87l-8.17-12.93a25.27,25.27,0,0,1-8.22,4.65,30,30,0,0,1-9.86,1.63q-16.45,0-17.46-13.81H141.8Zm-44.44-16.2A18.47,18.47,0,0,1,110.12,144a15.74,15.74,0,0,1,11,3.71A13.13,13.13,0,0,1,125.2,158H91.67a19.93,19.93,0,0,1,6.78-10.23Z"/><path id="Caminho_614" data-name="Caminho 614" class="cls-3" d="M188.7,145.09l3.07-15.76a45.34,45.34,0,0,0-14.63,2.14,25.36,25.36,0,0,0-10.6,6.91l1.63-8H149.58l-6.68,33.59-1.08,5.46-5.68,28.51h19.6l6.53-32.65a23,23,0,0,1,7.22-13.69,21.71,21.71,0,0,1,14.24-4.4c.62,0,2,.07,4,.21.24-.41.47-.82.72-1.22Z"/><path id="Caminho_615" data-name="Caminho 615" class="cls-2" d="M259.49,153.45l4.71-23.7H243.39L241.81,138c-4.46-6.13-11.74-9.24-21.66-9.24A36.85,36.85,0,0,0,189,145.41c-.17.25-.32.49-.5.74-.25.4-.48.82-.73,1.23l-.48.81a41.72,41.72,0,0,0-5,20.45,32.45,32.45,0,0,0,4,16.44,27.9,27.9,0,0,0,10.84,10.71,32.22,32.22,0,0,0,34.69-3l-1.07,5.69h19.79l5.34-26.85,1.52-7.66A36.82,36.82,0,0,1,259.49,153.45Zm-48.31-3.72c.4-.3.81-.59,1.24-.86a18.55,18.55,0,0,1,10-2.74,15,15,0,0,1,11,3.86,14.13,14.13,0,0,1,3.9,10.5,24.91,24.91,0,0,1-2.45,11.29A18.2,18.2,0,0,1,218,182.12a15,15,0,0,1-10.95-3.85,14.17,14.17,0,0,1-3.9-10.51,21.51,21.51,0,0,1,8-18Z"/><path id="Caminho_616" data-name="Caminho 616" class="cls-3" d="M329.79,168.65a40.17,40.17,0,0,1,5.09-20.16c.1-.19.22-.36.32-.55l3.49-17.6H320l-2.14,11a19.4,19.4,0,0,0-9-9.1A30.83,30.83,0,0,0,295,129.34a38.13,38.13,0,0,0-19.27,4.9,35.81,35.81,0,0,0-16.23,19.21,37,37,0,0,0-2.1,10.55c0,.75-.07,1.5-.07,2.25a34,34,0,0,0,.42,5.33A26.27,26.27,0,0,0,272,191.17a32.9,32.9,0,0,0,15.19,3.45,29.2,29.2,0,0,0,20.39-7.35l.21-.18-.05.29-.45,2.6a19.66,19.66,0,0,1-21.57,17.52l-.54-.07a45.21,45.21,0,0,1-13.37-1.94,29.22,29.22,0,0,1-10.36-5.34l-9.29,14.19A42.07,42.07,0,0,0,266.31,221a68.06,68.06,0,0,0,18,2.25q18,0,28.7-8.79t14.5-27.88l1.93-9.69.67-3.4A35.57,35.57,0,0,1,329.79,168.65ZM306.55,173a19.06,19.06,0,0,1-14.06,5.53A16.75,16.75,0,0,1,281.18,175a12.21,12.21,0,0,1-4.14-9.74,19.07,19.07,0,0,1,5.59-14.19,19.45,19.45,0,0,1,14.25-5.53,16.28,16.28,0,0,1,11.18,3.58,12.43,12.43,0,0,1,4,9.74A19.22,19.22,0,0,1,306.55,173Z"/><path id="Caminho_617" data-name="Caminho 617" class="cls-3" d="M376.19,181.58a29.77,29.77,0,0,1-9.86,1.63q-16.45,0-17.45-13.81h51.51l1.08-5.46a45.66,45.66,0,0,0,.28-4.82,30.62,30.62,0,0,0-4-15.7A26.37,26.37,0,0,0,386.62,133a37.5,37.5,0,0,0-17-3.64,41.25,41.25,0,0,0-20.6,5.09A36.43,36.43,0,0,0,335.21,148c-.11.19-.23.37-.33.55a40.26,40.26,0,0,0-5.08,20.16,36.26,36.26,0,0,0,.33,4.88,30.49,30.49,0,0,0,.65,3.27,27.91,27.91,0,0,0,3.23,7.8,27.37,27.37,0,0,0,12.06,10.6,42.41,42.41,0,0,0,18.27,3.7,51.36,51.36,0,0,0,15.33-2.25,38.72,38.72,0,0,0,12.93-6.78l-2.16-3.43-6-9.5A25.15,25.15,0,0,1,376.19,181.58ZM357,147.74A18.47,18.47,0,0,1,368.72,144a15.74,15.74,0,0,1,11,3.71A13.09,13.09,0,0,1,383.79,158H350.25A20,20,0,0,1,357,147.74Z"/><path id="Caminho_618" data-name="Caminho 618" class="cls-3" d="M471.62,146.92h-3.18l1.21-6.06a18.83,18.83,0,0,0-4.22-5.56,26,26,0,0,0-18-6,31.7,31.7,0,0,0-22.23,8.29l1.5-7.28H408.15l-6.68,33.59-1.08,5.46-3.45,17.35-2.22,11.18h19.59l6.78-34.29a22.62,22.62,0,0,1,6.72-13,18.29,18.29,0,0,1,12.5-4.33,12.12,12.12,0,0,1,8.67,2.76,10.64,10.64,0,0,1,2.89,8,20.83,20.83,0,0,1-.5,4.65l-7.29,36.17h19.6l7.53-37.43c0-.12.05-.24.07-.35a38,38,0,0,0,.81-7.82A30.5,30.5,0,0,0,471.62,146.92Z"/><path id="Caminho_619" data-name="Caminho 619" class="cls-3" d="M507.64,181.08a15.33,15.33,0,0,1-7.68,2.25q-7.15,0-7.16-6.53a12.12,12.12,0,0,1,.25-2.76l5.41-27.13h12.82a36.62,36.62,0,0,1,5.33-6.64l1.69-8.43H501.47l1-4.88,2.3-11.58H485.14l-.14.72-3.13,15.74H471.45l-1.8,9-1.21,6.06h10.42L476,161.11l-2.57,13a32.59,32.59,0,0,0-.64,5.91,17.35,17.35,0,0,0,5.78,13.81,22.47,22.47,0,0,0,15.32,5,31.59,31.59,0,0,0,16.83-4l-1.7-8.2-1-4.6C508,181.75,507.78,181.42,507.64,181.08Z"/><path id="Caminho_620" data-name="Caminho 620" class="cls-3" d="M562.07,133a37.39,37.39,0,0,0-17-3.65c-.81,0-1.6,0-2.39.07a40.31,40.31,0,0,0-18.2,5,36.48,36.48,0,0,0-13.18,12.5c-.32.51-.64,1-1,1.57a40.21,40.21,0,0,0-5.09,20.15,31.4,31.4,0,0,0,2.41,12.44c.14.34.32.67.46,1,.41.85.85,1.69,1.34,2.5.3.49.61,1,.94,1.42a27.6,27.6,0,0,0,11.11,9.2,42.48,42.48,0,0,0,18.28,3.7,51.3,51.3,0,0,0,15.32-2.25A39,39,0,0,0,568,189.88l-8.17-12.94a24.91,24.91,0,0,1-8.22,4.65,29.82,29.82,0,0,1-9.86,1.63q-16.46,0-17.46-13.81h51.74a51.65,51.65,0,0,0,1.13-10.3,30.55,30.55,0,0,0-3.95-15.69A26.39,26.39,0,0,0,562.07,133Zm-29.59,14.76A18.47,18.47,0,0,1,544.16,144a15.71,15.71,0,0,1,11,3.71A13.13,13.13,0,0,1,559.24,158H525.71A19.85,19.85,0,0,1,532.48,147.74Z"/><path id="Caminho_621" data-name="Caminho 621" class="cls-1" d="M483.89,28.43l.05-.08.53-1.12.73-.68a5.58,5.58,0,0,0,1.34-4.91,2.13,2.13,0,0,0-.93-1.53c-.24-.15-.75-.47-2.29,0l-.59.19-.61,0a1.59,1.59,0,0,0-.9.39,2.16,2.16,0,0,0-.39.41l-.6.79-.16.09v1.22a1.84,1.84,0,0,0,.05.41,1.71,1.71,0,0,0,.64,1.07l.4.32.32.39c.08.09.16.17.23.26l1.07,1.12.29,1.49.07,0A1.6,1.6,0,0,0,483.89,28.43Z"/><path id="Caminho_622" data-name="Caminho 622" class="cls-1" d="M467.44,52.12A29.9,29.9,0,0,0,476,53.37a31.08,31.08,0,0,0,3.21-.17,34,34,0,0,0,10.6-2.94c.19-.08.37-.19.56-.28a38,38,0,0,0,8.08-5.25l.12-.1a12.24,12.24,0,0,0,1.21-1.18,32.48,32.48,0,0,0,4.53-6.54,29,29,0,0,0,2.83-8.13A25,25,0,0,0,507,19a23.91,23.91,0,0,0-4.2-9.21l-.15-.2a7.67,7.67,0,0,0-.52-.64,25.77,25.77,0,0,0-8-6.1,28.73,28.73,0,0,0-3.24-1.35A28.1,28.1,0,0,0,480.56,0a24.41,24.41,0,0,0-4.89.68,22.93,22.93,0,0,0-7.87,3.54,10.54,10.54,0,0,0-1.21-.9A10.93,10.93,0,0,0,451.52,6.7a33.18,33.18,0,0,0-4,9.13v0a32.24,32.24,0,0,0-1,10.44A28.78,28.78,0,0,0,449.6,37.5a27,27,0,0,0,7.51,9,30.71,30.71,0,0,0,3.69,2.61,28.56,28.56,0,0,0,5.55,2.65A10.12,10.12,0,0,0,467.44,52.12ZM456.45,34a21.08,21.08,0,0,1-2.25-8.19,24.61,24.61,0,0,1,.79-7.92,25.42,25.42,0,0,1,3.05-7,3.18,3.18,0,0,1,5.75,2.57l0,.13a25.49,25.49,0,0,0-1,5.69,19.09,19.09,0,0,0,.4,5.38A13,13,0,0,0,465,29.06a10,10,0,0,0,3.17,3l.35.26a11.76,11.76,0,0,0,3.14,1.64c.32.11.64.21,1,.29a12.33,12.33,0,0,0,4.57.23A16.31,16.31,0,0,0,482,33.1a19.94,19.94,0,0,0,4.08-2.46l.09-.07.07-.09a14.1,14.1,0,0,0,1.66-2.31A10.89,10.89,0,0,0,489,25.31a6.7,6.7,0,0,0,.14-2.6,6.11,6.11,0,0,0-.81-2.23l0-.09-.07-.08A9.84,9.84,0,0,0,484,17.59a10.19,10.19,0,0,0-1.23-.35,8.42,8.42,0,0,0-6.35.77,4.85,4.85,0,0,0-1,.9,5.84,5.84,0,0,0-.75,1.25l-.1.28a4.59,4.59,0,0,0-.17.48,2.87,2.87,0,0,0-.12.65v0l0,.16,0,.32,0,.57.21.32a1.31,1.31,0,0,0,.25.32,5.43,5.43,0,0,0,1.47.9c.44.2,1,.41,1.65.65l1.24.41,1.43.48.38.13a2.57,2.57,0,0,1-1.18,5l-1.25-.14a33,33,0,0,1-4.18-.65,12,12,0,0,1-1.18-.35,10.77,10.77,0,0,1-2-.91,7.94,7.94,0,0,1-3-3l-.27-.49c-.06-.14-.12-.27-.17-.4l-.13-.35a5.79,5.79,0,0,1-.27-.8,10.63,10.63,0,0,1-.32-2v-.25c0-.26,0-.52,0-.77l.09-.91a11.11,11.11,0,0,1,.26-1.53l0-.23a12.44,12.44,0,0,1,3.8-6.39,14.68,14.68,0,0,1,6.46-3.32,17.73,17.73,0,0,1,3.41-.48,20,20,0,0,1,3.37.14,20.37,20.37,0,0,1,4.07.94,21.35,21.35,0,0,1,2.38,1,18.11,18.11,0,0,1,5.63,4.27,1.34,1.34,0,0,1,.11.14l.14.18a16.32,16.32,0,0,1,2.85,6.22,17.37,17.37,0,0,1,.09,6.74,21.59,21.59,0,0,1-2.08,6,24.57,24.57,0,0,1-3.43,4.95,5.07,5.07,0,0,1-.47.46,30.66,30.66,0,0,1-7,4.5,26.19,26.19,0,0,1-8.14,2.27,22.18,22.18,0,0,1-8.76-.79l-.82-.26a21.61,21.61,0,0,1-6.9-4A19.48,19.48,0,0,1,456.45,34Zm26.34-7.16-1.06-1.12-.24-.25-.32-.39-.4-.32a1.83,1.83,0,0,1-.64-1.07,3,3,0,0,1-.05-.42V22l.16-.1.6-.78a3,3,0,0,1,.39-.41,1.62,1.62,0,0,1,.9-.39l.61-.05.59-.18c1.55-.49,2.05-.17,2.29,0a2.08,2.08,0,0,1,.94,1.53,5.62,5.62,0,0,1-1.35,4.91l-.73.68L484,28.35l0,.08a1.91,1.91,0,0,1-.75-.09l-.06,0Z"/><path id="Caminho_623" data-name="Caminho 623" class="cls-3" d="M468.86,44.45c.27.1.55.19.82.27a22.37,22.37,0,0,0,8.76.79,26.33,26.33,0,0,0,8.15-2.27,31.17,31.17,0,0,0,7-4.5,5.1,5.1,0,0,0,.47-.46,24.51,24.51,0,0,0,3.43-5,20.89,20.89,0,0,0,2.08-5.94,17.43,17.43,0,0,0-.09-6.75,15.92,15.92,0,0,0-2.85-6.21l-.13-.19-.11-.13a18.18,18.18,0,0,0-5.64-4.28,22.29,22.29,0,0,0-2.37-1,19.64,19.64,0,0,0-4.08-.94,18,18,0,0,0-3.37-.14,16.39,16.39,0,0,0-3.41.48A14.58,14.58,0,0,0,471,11.55a12.44,12.44,0,0,0-3.8,6.39l-.05.23a13.54,13.54,0,0,0-.25,1.53l-.09.92c0,.24,0,.51,0,.77v.24a10.09,10.09,0,0,0,.32,2,5.79,5.79,0,0,0,.27.8l.13.34c.05.13.1.27.16.4l.28.5a7.91,7.91,0,0,0,3,3,12.62,12.62,0,0,0,2,.91c.41.14.81.26,1.19.35a31,31,0,0,0,4.18.64l1.25.15a2.57,2.57,0,0,0,1.18-5l-.38-.14L479,25.18l-1.23-.42a17.59,17.59,0,0,1-1.65-.64,5.28,5.28,0,0,1-1.47-.9,1.31,1.31,0,0,1-.25-.32l-.21-.32,0-.57,0-.32,0-.17v0a2.8,2.8,0,0,1,.13-.64,2.46,2.46,0,0,1,.16-.48l.1-.28a6.21,6.21,0,0,1,.76-1.26,5.12,5.12,0,0,1,1-.9,8.47,8.47,0,0,1,6.35-.76,10.31,10.31,0,0,1,1.24.34,10.06,10.06,0,0,1,4.21,2.72l.07.08.06.09a6.42,6.42,0,0,1,.81,2.24,6.91,6.91,0,0,1-.14,2.6,10.72,10.72,0,0,1-1.15,2.86,13.87,13.87,0,0,1-1.65,2.31l-.08.09-.09.07A19.61,19.61,0,0,1,482,33.08a16.46,16.46,0,0,1-4.75,1.36,12.72,12.72,0,0,1-4.56-.23c-.32-.09-.65-.18-1-.29a11.9,11.9,0,0,1-3.14-1.64l-.35-.26A9.85,9.85,0,0,1,465,29a12.76,12.76,0,0,1-1.87-4.43,19,19,0,0,1-.41-5.38,26.1,26.1,0,0,1,1-5.68l0-.13A3.19,3.19,0,0,0,458,10.84a25.56,25.56,0,0,0-3,7,24.58,24.58,0,0,0-.79,7.92A21.13,21.13,0,0,0,456.43,34a19.44,19.44,0,0,0,5.5,6.49A21.75,21.75,0,0,0,468.86,44.45Z"/></g></svg>