<svg id="Camada_1" data-name="Camada 1" xmlns="http://www.w3.org/2000/svg" viewBox="0 0 586.17 232.2"><defs><style>.cls-1{fill:#fff;}.cls-2{fill:#7f14ef;}.cls-3{fill:#f2116d;}</style></defs><title>logo</title><path class="cls-1" d="M139.22,143.4a30.55,30.55,0,0,1,4,15.7,43.25,43.25,0,0,1-.28,4.83l6.69-33.6h18.59l-1.64,8a25.5,25.5,0,0,1,10.62-6.91,45.18,45.18,0,0,1,14.63-2.13l-3.07,15.76c.1.11.2.2.29.32a36.83,36.83,0,0,1,31.16-16.68c9.92,0,17.2,3.11,21.66,9.25l1.58-8.24h20.81l-4.71,23.7a35.4,35.4,0,0,1,2.73-5.9,35.87,35.87,0,0,1,13.5-13.31,38.27,38.27,0,0,1,19.29-4.9,30.85,30.85,0,0,1,13.87,2.95,19.32,19.32,0,0,1,9,9.11L320,130.33h18.71l-3.49,17.6A36.37,36.37,0,0,1,349,134.42a41.21,41.21,0,0,1,20.6-5.09,37.36,37.36,0,0,1,17,3.64,26.4,26.4,0,0,1,11.18,10.43,30.55,30.55,0,0,1,4,15.7,45.78,45.78,0,0,1-.28,4.83l6.68-33.6h18.59l-1.51,7.29q9-8.3,22.23-8.29,11.31,0,18,6a18.65,18.65,0,0,1,4.23,5.56l1.8-9h10.43L485,116.11a30.33,30.33,0,0,1-1.78-2.72,31.65,31.65,0,0,1-4-16.14,40.91,40.91,0,0,1,5-20.15,2,2,0,0,1,.11-.2,5.87,5.87,0,0,1-1.33-.42,7.82,7.82,0,0,1-.8-.45l-10,50.49H452.37l12.78-64.27a6.56,6.56,0,0,1-1.87-.14h-.21L460.37,76c-2.35-.17-3.86-.25-4.53-.25q-8.91,0-14.25,4.39t-7.22,13.69l-6.53,32.66h-19.6L413.91,98H362.4q1,13.81,17.46,13.81a29.86,29.86,0,0,0,9.86-1.63,25.1,25.1,0,0,0,8.22-4.65l8.17,12.94a38.75,38.75,0,0,1-12.94,6.78,51.35,51.35,0,0,1-15.32,2.26,42.4,42.4,0,0,1-18.28-3.7,27.49,27.49,0,0,1-12.06-10.61,28.55,28.55,0,0,1-3.86-11.06l-4.86,24.37H320.2l1.38-6.78a31.3,31.3,0,0,1-35.3,4.14,27.21,27.21,0,0,1-10.61-10.49A29.61,29.61,0,0,1,272,101.61a37.24,37.24,0,0,1-17.63,20.77,42.93,42.93,0,0,1-21,5.14,40.4,40.4,0,0,1-17.9-3.76,28.12,28.12,0,0,1-11.93-10.62,29.76,29.76,0,0,1-4.21-15.89,41,41,0,0,1,1.67-11.77,33.56,33.56,0,0,1-14.67,12.4q-9.6,4.4-22.67,4.4H144l-4.77,24.24H123a6.52,6.52,0,0,1-1,4.17,31.8,31.8,0,0,1,6,2.28A26.32,26.32,0,0,1,139.22,143.4Z"/><path class="cls-1" d="M274.14,82.76H274c-.11,0-.2,0-.31,0,.06.32.11.63.16,1C273.92,83.37,274,83.07,274.14,82.76Z"/><path class="cls-1" d="M206.49,74.19A4.24,4.24,0,0,1,206,74a3.55,3.55,0,0,1-.43-.23c-.19,1-.41,1.87-.66,2.78C205.4,75.74,205.93,75,206.49,74.19Z"/><path class="cls-1" d="M181.47,58.32q-4.22-3.14-12.12-3.14H153.4L147.24,85.7h17.21q10.17,0,15.7-4.65t5.53-13.31Q185.68,61.46,181.47,58.32Z"/><path class="cls-1" d="M311.28,74.14A18.79,18.79,0,0,0,294,84.82a25.44,25.44,0,0,0-2.52,11.56q0,6.9,4.09,10.92t11.36,4a18.79,18.79,0,0,0,17.34-10.67,25.6,25.6,0,0,0,2.51-11.56q0-6.9-4.08-10.93T311.28,74.14Z"/><path class="cls-1" d="M39.5,146q-3.33,1.89-3.33,4.78,0,2.63,2.89,3.83a59.42,59.42,0,0,0,9.67,2.57,90.36,90.36,0,0,1,11.74,2.95,19.33,19.33,0,0,1,8,5.22,12.18,12.18,0,0,1,2.82,5.26c0-.66-.06-1.32-.06-2A43.19,43.19,0,0,1,72.4,158.4,6.52,6.52,0,0,1,67,156c-.23-.28-.46-.55-.7-.81a6.52,6.52,0,0,1-.75-7.86,39.25,39.25,0,0,0-16.28-3.21Q42.83,144.15,39.5,146Z"/><path class="cls-1" d="M71.84,175.3a24.57,24.57,0,0,1-.14,2.6c.17,0,.34-.06.51-.07h.26c-.24-.83-.46-1.68-.63-2.55Z"/><path class="cls-1" d="M529.17,119.86q-8.42,7.67-20.73,7.66a31.46,31.46,0,0,1-6-.55l-1,4.87h16.83l-1.69,8.44a37,37,0,0,1,7.85-5.86,40.4,40.4,0,0,1,18.2-5,6.51,6.51,0,0,1-.4-2.87H527.91Z"/><path class="cls-1" d="M125.22,158q0-6.54-4.08-10.24t-11-3.71a18.46,18.46,0,0,0-11.68,3.71A19.92,19.92,0,0,0,91.68,158Z"/><path class="cls-1" d="M350.85,73.32a6.13,6.13,0,0,1-.91-.4c-.15-.08-.27-.18-.41-.27l-.76,3.83C349.42,75.38,350.11,74.33,350.85,73.32Z"/><path class="cls-1" d="M518.87,74.14a18.79,18.79,0,0,0-17.33,10.68A25.44,25.44,0,0,0,499,96.38q0,6.9,4.08,10.92t11.37,4a18.76,18.76,0,0,0,17.33-10.67,25.47,25.47,0,0,0,2.52-11.56q0-6.9-4.09-10.93T518.87,74.14Z"/><path class="cls-1" d="M493.1,174a11.73,11.73,0,0,0-.26,2.77q0,6.52,7.16,6.53a15.32,15.32,0,0,0,7.68-2.26,31.32,31.32,0,0,1-2.4-12.44,40.11,40.11,0,0,1,5.09-20.16c.3-.54.63-1,.95-1.57H498.5Z"/><path class="cls-1" d="M439.13,66.49a4.05,4.05,0,0,1-.35-.21l-.14.7C438.8,66.81,439,66.65,439.13,66.49Z"/><path class="cls-1" d="M382.24,72.64a18.47,18.47,0,0,0-11.68,3.7,20,20,0,0,0-6.78,10.24h33.53q0-6.52-4.08-10.24T382.24,72.64Z"/><path class="cls-1" d="M415,92.54l2-9.94c-.24,0-.47.09-.71.11a6.72,6.72,0,0,1-1.35-.07,36.23,36.23,0,0,1,.36,5.07A45.78,45.78,0,0,1,415,92.54Z"/><path class="cls-1" d="M238.93,74.14A18.79,18.79,0,0,0,221.6,84.82a25.44,25.44,0,0,0-2.51,11.56q0,6.9,4.08,10.92t11.37,4a18.8,18.8,0,0,0,10.17-2.82,19.16,19.16,0,0,0,7-7.85,25.6,25.6,0,0,0,2.51-11.56q0-6.9-4-10.93T238.93,74.14Z"/><path class="cls-1" d="M379.74,147.73q-4.08-3.71-11-3.71a18.48,18.48,0,0,0-11.68,3.71A20,20,0,0,0,350.29,158h33.53Q383.82,151.43,379.74,147.73Z"/><path class="cls-1" d="M329.48,176.91l.32-.07a6.56,6.56,0,0,1,1,0,29.24,29.24,0,0,1-.63-3.28Z"/><path class="cls-1" d="M471.66,146.91a30.87,30.87,0,0,1,.46,5.4,38.41,38.41,0,0,1-.81,7.81,6.57,6.57,0,0,1,3.76.44l.3.14a6.44,6.44,0,0,1,.72.42l2.81-14.21Z"/><path class="cls-1" d="M308.09,149.11q-4-3.59-11.18-3.58a19.42,19.42,0,0,0-14.26,5.53,19.11,19.11,0,0,0-5.59,14.19,12.2,12.2,0,0,0,4.15,9.74q4.14,3.57,11.3,3.57a18.92,18.92,0,0,0,19.6-19.71A12.38,12.38,0,0,0,308.09,149.11Z"/><path class="cls-1" d="M555.21,147.73q-4.1-3.71-11-3.71a18.51,18.51,0,0,0-11.69,3.71A20,20,0,0,0,525.75,158h33.54Q559.29,151.43,555.21,147.73Z"/><path class="cls-1" d="M508.15,182.09l1,4.6c.1-.07.2-.15.32-.22a7,7,0,0,1,1-.46c-.33-.46-.65-.93-.94-1.42A27.32,27.32,0,0,1,508.15,182.09Z"/><path class="cls-1" d="M348.91,169.39q1,13.83,17.46,13.82a29.86,29.86,0,0,0,9.86-1.63,25.1,25.1,0,0,0,8.22-4.65l6,9.5a6.56,6.56,0,0,1,6.46.25l.06,0,3.45-17.34Z"/><path class="cls-1" d="M207.08,178.27c2.59,2.55,6.28,3.84,10.95,3.84a18.16,18.16,0,0,0,16.8-10.34,25,25,0,0,0,2.45-11.29c0-4.42-1.31-7.95-3.9-10.51s-6.28-3.84-10.95-3.84a18.6,18.6,0,0,0-10,2.73c-.43.27-.84.56-1.24.86a21.53,21.53,0,0,0-8,18C203.18,172.18,204.49,175.72,207.08,178.27Z"/><path class="cls-1" d="M257.41,164l-1.52,7.66a5.58,5.58,0,0,1,.59-.1,6.19,6.19,0,0,1,1.29,0,33.81,33.81,0,0,1-.43-5.32C257.34,165.49,257.37,164.74,257.41,164Z"/><path class="cls-1" d="M307.63,187.28a.91.91,0,0,0,.16.11l0-.28C307.77,187.17,307.69,187.22,307.63,187.28Z"/><path class="cls-1" d="M581,138.9h0A35.41,35.41,0,0,0,566.13,125a41.63,41.63,0,0,0-9.56-3.38l12.12-60.93A8.92,8.92,0,0,0,559.94,50H540.35a8.89,8.89,0,0,0-6.26,2.57A39.93,39.93,0,0,0,516.61,49a45.19,45.19,0,0,0-22.29,5.7A9,9,0,0,0,492.8,52a9.13,9.13,0,0,0-2.4-2c-.18.09-.36.2-.55.28a34.05,34.05,0,0,1-10.59,2.94,31.57,31.57,0,0,1-3.22.17,29.59,29.59,0,0,1-8.56-1.25c-.34-.1-.73-.23-1.11-.36a29.14,29.14,0,0,1-5.56-2.65,51.55,51.55,0,0,0-14.46,2.54l-.65.23A8.86,8.86,0,0,0,440.27,50H421.68a8.94,8.94,0,0,0-8.75,7.18l-.43,2.16a36.24,36.24,0,0,0-8.34-5.75,46.38,46.38,0,0,0-21-4.6,51.71,51.71,0,0,0-20.59,4.06l3.59-18a8.92,8.92,0,0,0-8.74-10.67h-19.6A9,9,0,0,0,329,31.57L325,52A40.82,40.82,0,0,0,309,49a45.16,45.16,0,0,0-34,15.07A37.75,37.75,0,0,0,262,53.7,49.35,49.35,0,0,0,240.06,49a51.55,51.55,0,0,0-25.3,6.27l-.86.49a32,32,0,0,0-11-16.91c-7.59-6.1-18-9.19-31-9.19H136.32a9,9,0,0,0-8.75,7.17l-16.71,83.56a50.14,50.14,0,0,0-24.8,6.23c-1.18.67-2.33,1.37-3.43,2.12a9,9,0,0,0-2-1.54,50.48,50.48,0,0,0-13.74-5.08,70.77,70.77,0,0,0-15.66-1.73c-11.88,0-21.82,2.62-29.52,7.79A28.8,28.8,0,0,0,8.41,153.07c0,6.49,1.91,11.88,5.68,16a9,9,0,0,0-5.52,4.42L1,187.69a9,9,0,0,0,2.69,11.45c3.83,2.74,9,4.92,15.28,6.48a78,78,0,0,0,18.79,2.21c11.76,0,21.65-2.55,29.41-7.59a32.2,32.2,0,0,0,5.61-4.57,37.24,37.24,0,0,0,10.85,7.6,51.32,51.32,0,0,0,22.08,4.56,60.44,60.44,0,0,0,18-2.66,50.71,50.71,0,0,0,5.26-1.95l.27.35a8.91,8.91,0,0,0,6.9,3.26h19.59a9,9,0,0,0,8.75-7.17L171,167a17.43,17.43,0,0,1,3.08-7.47,55.3,55.3,0,0,0-.74,9.09,41.2,41.2,0,0,0,5.23,20.9,36.72,36.72,0,0,0,14.28,14.08A39.41,39.41,0,0,0,212,208.43a42.11,42.11,0,0,0,14.09-2.32,8.93,8.93,0,0,0,4.66,1.31h15.33l-1.35,2.06a8.93,8.93,0,0,0,2.14,12,51.23,51.23,0,0,0,17.09,8.1,77.18,77.18,0,0,0,20.39,2.58c14,0,25.59-3.64,34.35-10.81,6.76-5.54,11.83-13.41,15.13-23.49a38.27,38.27,0,0,0,8.44,5.37,51.33,51.33,0,0,0,22.09,4.56,60.38,60.38,0,0,0,18-2.66,50.71,50.71,0,0,0,5.26-1.95l.28.35a8.89,8.89,0,0,0,6.89,3.26h19.59a9,9,0,0,0,8.76-7.19l6.77-34.25c.76-3.73,2.08-6.52,3.84-8a9.39,9.39,0,0,1,6.63-2.13,7.25,7.25,0,0,1,2.47.31,5.65,5.65,0,0,1,.17,1.57,11.82,11.82,0,0,1-.28,2.69c0,.06,0,.13-.05.19l-7.28,36.18a8.92,8.92,0,0,0,8.74,10.68h19.6a9,9,0,0,0,8.62-6.63l.47.42c5.5,4.79,12.62,7.21,21.18,7.21s15.74-1.8,21.5-5.34l.31-.2c.63.34,1.28.67,1.94,1a51.33,51.33,0,0,0,22.09,4.56,60.44,60.44,0,0,0,18-2.66,48,48,0,0,0,15.86-8.34,8.9,8.9,0,0,0,2-11.72l-4.28-6.79h4.78a9,9,0,0,0,8.75-7.17,62.45,62.45,0,0,0,1.3-12.05A39.53,39.53,0,0,0,581,138.9Zm-4.88,30.49H524.37q1,13.83,17.46,13.82a29.86,29.86,0,0,0,9.86-1.63,25.25,25.25,0,0,0,8.23-4.65l8.16,12.94a39.11,39.11,0,0,1-12.94,6.78,51.26,51.26,0,0,1-15.32,2.26,42.43,42.43,0,0,1-18.28-3.7,27.55,27.55,0,0,1-11.11-9.2,7,7,0,0,0-1,.46c-.12.07-.22.15-.32.22l1.7,8.2q-6.54,4-16.83,4-9.56,0-15.33-5t-5.78-13.82a32.92,32.92,0,0,1,.63-5.9l2.59-13a6.44,6.44,0,0,0-.72-.42l-.3-.14a6.57,6.57,0,0,0-3.76-.44c0,.12,0,.24-.07.36l-7.53,37.43h-19.6l7.29-36.18a20.5,20.5,0,0,0,.5-4.64q0-5.28-2.89-8c-1.93-1.84-4.82-2.77-8.67-2.77a18.28,18.28,0,0,0-12.49,4.34q-5,4.33-6.72,13l-6.79,34.29H394.75L397,186.73l-.06,0a6.56,6.56,0,0,0-6.46-.25l2.17,3.44a39.21,39.21,0,0,1-12.94,6.78,51.35,51.35,0,0,1-15.32,2.26,42.37,42.37,0,0,1-18.28-3.7A27.45,27.45,0,0,1,334,184.59a28,28,0,0,1-3.23-7.79,6.56,6.56,0,0,0-1,0l-.32.07-1.92,9.69q-3.78,19.1-14.51,27.89t-28.7,8.79a67.85,67.85,0,0,1-18-2.26,42.21,42.21,0,0,1-14.13-6.66l9.3-14.19a29.15,29.15,0,0,0,10.36,5.34,45.62,45.62,0,0,0,13.38,1.94q9.91,0,15.07-4.33t7-13.13l.46-2.6a.91.91,0,0,1-.16-.11q-8.13,7.35-20.39,7.36a33,33,0,0,1-15.2-3.45,26.6,26.6,0,0,1-10.74-9.86,26.19,26.19,0,0,1-3.53-9.75,6.19,6.19,0,0,0-1.29,0,5.58,5.58,0,0,0-.59.1l-5.34,26.85h-19.8l1.08-5.69a32.19,32.19,0,0,1-34.68,3,27.81,27.81,0,0,1-10.84-10.71,32.39,32.39,0,0,1-4-16.44,41.78,41.78,0,0,1,5-20.45l.49-.81c-2.07-.14-3.42-.22-4-.22q-8.92,0-14.26,4.4t-7.22,13.69l-6.53,32.66H136.15l5.67-28.52H90.3q1,13.83,17.46,13.82a29.86,29.86,0,0,0,9.86-1.63,25.25,25.25,0,0,0,8.23-4.65L134,189.87a39.16,39.16,0,0,1-12.93,6.78,51.37,51.37,0,0,1-15.33,2.26,42.36,42.36,0,0,1-18.27-3.7,27.34,27.34,0,0,1-12.06-10.62,27.88,27.88,0,0,1-3-6.75h-.26c-.17,0-.34,0-.51.07a19.44,19.44,0,0,1-9.34,14.86q-9.49,6.15-24.56,6.15A69.3,69.3,0,0,1,21.16,197q-7.85-2-12.25-5.09l7.54-14.19a38,38,0,0,0,10.74,4.64,47.24,47.24,0,0,0,12.75,1.76c4.44,0,7.74-.56,9.92-1.69s3.27-2.75,3.27-4.84c0-1.67-1-2.89-2.89-3.64a59,59,0,0,0-9.3-2.39,86.91,86.91,0,0,1-12-3,20,20,0,0,1-8.17-5.34q-3.45-3.7-3.45-10.11a19.9,19.9,0,0,1,9.36-17.46q9.35-6.29,24.55-6.28a61.5,61.5,0,0,1,13.69,1.51A41.24,41.24,0,0,1,76.24,135l-7,14.32a30.08,30.08,0,0,0-3.69-1.94,6.52,6.52,0,0,0,.75,7.86c.24.26.47.53.7.81a6.52,6.52,0,0,0,5.44,2.37,38.46,38.46,0,0,1,3.9-9.92,36.51,36.51,0,0,1,14.13-14.06,41.19,41.19,0,0,1,20.6-5.09,42.12,42.12,0,0,1,11,1.36,6.52,6.52,0,0,0,1-4.17h-4.25L136.32,38.6h35.54q16.45,0,25.44,7.22t9,20.16a41.65,41.65,0,0,1-.72,7.8A3.55,3.55,0,0,0,206,74a4.24,4.24,0,0,0,.5.18,38.17,38.17,0,0,1,12.6-11.1,42.56,42.56,0,0,1,21-5.15,40.31,40.31,0,0,1,18,3.77,27.65,27.65,0,0,1,15.63,21c.11,0,.2,0,.31,0h.17a37.78,37.78,0,0,1,2.54-5.66A36.54,36.54,0,0,1,290.18,63,36.13,36.13,0,0,1,309,57.94a31.54,31.54,0,0,1,13,2.51,20.6,20.6,0,0,1,8.85,7.41l6.91-34.54h19.6l-7.85,39.33c.14.09.26.19.41.27a6.13,6.13,0,0,0,.91.4A36.51,36.51,0,0,1,362.52,63a41.32,41.32,0,0,1,20.6-5.09,37.49,37.49,0,0,1,17,3.64A26.46,26.46,0,0,1,411.32,72a28.92,28.92,0,0,1,3.6,10.63,6.72,6.72,0,0,0,1.35.07c.24,0,.47-.07.71-.11L421.68,59h18.59l-1.49,7.33a4.05,4.05,0,0,0,.35.21,25.3,25.3,0,0,1,10.12-6.41,44.9,44.9,0,0,1,14.63-2.14l-.81,4.18h.21a6.56,6.56,0,0,0,1.87.14l.92-4.58H485.9L482.25,76a7.82,7.82,0,0,0,.8.45,5.87,5.87,0,0,0,1.33.42A36.58,36.58,0,0,1,497.77,63a36.13,36.13,0,0,1,18.84-5.09q15.57,0,22,10.18L540.35,59h19.59L546.5,126.52h-4.2a6.51,6.51,0,0,0,.4,2.87c.79,0,1.59-.06,2.39-.06a37.3,37.3,0,0,1,17,3.64,26.35,26.35,0,0,1,11.18,10.43,30.55,30.55,0,0,1,4,15.7A53.1,53.1,0,0,1,576.12,169.39Z"/><path class="cls-1" d="M188.52,146.15l.49-.74c-.09-.12-.19-.21-.29-.32Z"/><path class="cls-2" d="M144,102.28h19.59q13.06,0,22.67-4.4a33.56,33.56,0,0,0,14.67-12.4,37.23,37.23,0,0,1,3.61-8.32c.12-.21.26-.4.38-.6.25-.91.47-1.83.66-2.78a41.65,41.65,0,0,0,.72-7.8q0-12.93-9-20.16T171.86,38.6H136.32l-17.59,87.92h20.48Zm36.17-21.23q-5.52,4.65-15.7,4.65H147.24l6.16-30.52h15.95q7.91,0,12.12,3.14t4.21,9.42Q185.68,76.41,180.15,81.05Z"/><path class="cls-2" d="M204.52,77.16a37.23,37.23,0,0,0-3.61,8.32,41,41,0,0,0-1.67,11.77,29.76,29.76,0,0,0,4.21,15.89,28.12,28.12,0,0,0,11.93,10.62,40.4,40.4,0,0,0,17.9,3.76,42.93,42.93,0,0,0,21-5.14A37.24,37.24,0,0,0,272,101.61a40.81,40.81,0,0,1-.24-4.36,42.82,42.82,0,0,1,2.11-13.57c-.05-.33-.1-.64-.16-1a27.65,27.65,0,0,0-15.63-21,40.31,40.31,0,0,0-18-3.77,42.56,42.56,0,0,0-21,5.15,38.17,38.17,0,0,0-12.6,11.1c-.56.77-1.09,1.55-1.59,2.37C204.78,76.76,204.64,77,204.52,77.16Zm47.23,23.49a19.16,19.16,0,0,1-7,7.85,18.8,18.8,0,0,1-10.17,2.82q-7.29,0-11.37-4t-4.08-10.92a25.44,25.44,0,0,1,2.51-11.56,18.79,18.79,0,0,1,17.33-10.68q7.29,0,11.31,4t4,10.93A25.6,25.6,0,0,1,251.75,100.65Z"/><path class="cls-2" d="M271.71,97.25a40.81,40.81,0,0,0,.24,4.36,29.61,29.61,0,0,0,3.72,11.78,27.21,27.21,0,0,0,10.61,10.49,31.3,31.3,0,0,0,35.3-4.14l-1.38,6.78h18.59l4.86-24.37a35.45,35.45,0,0,1-.34-4.9,40.14,40.14,0,0,1,5.08-20.15c.12-.21.25-.41.38-.62l.76-3.83,7.85-39.33h-19.6l-6.91,34.54A20.6,20.6,0,0,0,322,60.45a31.54,31.54,0,0,0-13-2.51A36.13,36.13,0,0,0,290.18,63a36.54,36.54,0,0,0-13.5,14.07,37.78,37.78,0,0,0-2.54,5.66c-.11.31-.22.61-.32.92A42.82,42.82,0,0,0,271.71,97.25Zm52.51,3.4a18.79,18.79,0,0,1-17.34,10.67q-7.28,0-11.36-4t-4.09-10.92A25.44,25.44,0,0,1,294,84.82a18.79,18.79,0,0,1,17.33-10.68q7.28,0,11.37,4t4.08,10.93A25.6,25.6,0,0,1,324.22,100.65Z"/><path class="cls-2" d="M348.39,77.1a40.14,40.14,0,0,0-5.08,20.15,35.45,35.45,0,0,0,.34,4.9,28.55,28.55,0,0,0,3.86,11.06,27.49,27.49,0,0,0,12.06,10.61,42.4,42.4,0,0,0,18.28,3.7,51.35,51.35,0,0,0,15.32-2.26,38.75,38.75,0,0,0,12.94-6.78l-8.17-12.94a25.1,25.1,0,0,1-8.22,4.65,29.86,29.86,0,0,1-9.86,1.63q-16.46,0-17.46-13.81h51.51L415,92.54a45.78,45.78,0,0,0,.28-4.83,36.23,36.23,0,0,0-.36-5.07A28.92,28.92,0,0,0,411.32,72a26.46,26.46,0,0,0-11.18-10.43,37.49,37.49,0,0,0-17-3.64A41.32,41.32,0,0,0,362.52,63a36.51,36.51,0,0,0-11.67,10.29c-.74,1-1.43,2.06-2.08,3.16C348.64,76.69,348.51,76.89,348.39,77.1Zm15.39,9.48a20,20,0,0,1,6.78-10.24,18.47,18.47,0,0,1,11.68-3.7q6.92,0,11,3.7t4.08,10.24Z"/><path class="cls-2" d="M413.91,98l-5.67,28.51h19.6l6.53-32.66q1.88-9.28,7.22-13.69t14.25-4.39c.67,0,2.18.08,4.53.25l2.7-13.91.81-4.18a44.9,44.9,0,0,0-14.63,2.14,25.3,25.3,0,0,0-10.12,6.41c-.17.16-.33.32-.49.49l.14-.7L440.27,59H421.68L417,82.6l-2,9.94Z"/><polygon class="cls-2" points="472.21 126.52 482.25 76.03 485.9 57.67 466.07 57.67 465.15 62.25 452.37 126.52 472.21 126.52"/><path class="cls-2" d="M479.3,97.25a31.65,31.65,0,0,0,4,16.14,30.33,30.33,0,0,0,1.78,2.72l.14-.72h19.6L502.48,127a31.46,31.46,0,0,0,6,.55q12.31,0,20.73-7.66l-1.26,6.66H546.5L559.94,59H540.35l-1.76,9.17q-6.4-10.19-22-10.18A36.13,36.13,0,0,0,497.77,63,36.58,36.58,0,0,0,484.38,76.9a2,2,0,0,0-.11.2A40.91,40.91,0,0,0,479.3,97.25Zm52.5,3.4a18.76,18.76,0,0,1-17.33,10.67q-7.29,0-11.37-4T499,96.38a25.44,25.44,0,0,1,2.52-11.56,18.79,18.79,0,0,1,17.33-10.68q7.27,0,11.36,4t4.09,10.93A25.47,25.47,0,0,1,531.8,100.65Z"/><path class="cls-3" d="M71.84,175.29a33.2,33.2,0,0,1-.57-4.65,12.18,12.18,0,0,0-2.82-5.26,19.33,19.33,0,0,0-8-5.22,90.36,90.36,0,0,0-11.74-2.95,59.42,59.42,0,0,1-9.67-2.57q-2.89-1.2-2.89-3.83,0-2.9,3.33-4.78t9.73-1.88a39.25,39.25,0,0,1,16.28,3.21,30.08,30.08,0,0,1,3.69,1.94l7-14.32a41.24,41.24,0,0,0-11.31-4.14,61.5,61.5,0,0,0-13.69-1.51q-15.19,0-24.55,6.28a19.9,19.9,0,0,0-9.36,17.46q0,6.41,3.45,10.11A20,20,0,0,0,29,168.52a86.91,86.91,0,0,0,12,3,59,59,0,0,1,9.3,2.39c1.92.75,2.89,2,2.89,3.64q0,3.13-3.27,4.84c-2.18,1.13-5.48,1.69-9.92,1.69a47.24,47.24,0,0,1-12.75-1.76,38,38,0,0,1-10.74-4.64L8.91,191.88Q13.31,195,21.16,197a69.3,69.3,0,0,0,16.64,1.94q15.08,0,24.56-6.15A19.44,19.44,0,0,0,71.7,177.9a24.57,24.57,0,0,0,.14-2.6Z"/><path class="cls-3" d="M142.9,163.93a43.25,43.25,0,0,0,.28-4.83,30.55,30.55,0,0,0-4-15.7A26.32,26.32,0,0,0,128.05,133a31.8,31.8,0,0,0-6-2.28,42.12,42.12,0,0,0-11-1.36,41.19,41.19,0,0,0-20.6,5.09A36.51,36.51,0,0,0,76.3,148.48a38.46,38.46,0,0,0-3.9,9.92,43.19,43.19,0,0,0-1.19,10.24c0,.68,0,1.34.06,2a33.2,33.2,0,0,0,.57,4.65c.17.87.39,1.72.63,2.55a27.88,27.88,0,0,0,3,6.75,27.34,27.34,0,0,0,12.06,10.62,42.36,42.36,0,0,0,18.27,3.7,51.37,51.37,0,0,0,15.33-2.26A39.16,39.16,0,0,0,134,189.87l-8.16-12.94a25.25,25.25,0,0,1-8.23,4.65,29.86,29.86,0,0,1-9.86,1.63q-16.45,0-17.46-13.82h51.52Zm-44.43-16.2A18.46,18.46,0,0,1,110.15,144q6.9,0,11,3.71T125.22,158H91.68A19.92,19.92,0,0,1,98.47,147.73Z"/><path class="cls-3" d="M188.72,145.09l3.07-15.76a45.18,45.18,0,0,0-14.63,2.13,25.5,25.5,0,0,0-10.62,6.91l1.64-8H149.59l-6.69,33.6-1.08,5.46-5.67,28.52h19.59l6.53-32.66q1.89-9.28,7.22-13.69t14.26-4.4c.62,0,2,.08,4,.22.24-.41.47-.83.73-1.23Z"/><path class="cls-2" d="M259.51,153.44l4.71-23.7H243.41L241.83,138c-4.46-6.14-11.74-9.25-21.66-9.25A36.83,36.83,0,0,0,189,145.41l-.49.74c-.26.4-.49.82-.73,1.23l-.49.81a41.78,41.78,0,0,0-5,20.45,32.39,32.39,0,0,0,4,16.44,27.81,27.81,0,0,0,10.84,10.71,32.19,32.19,0,0,0,34.68-3l-1.08,5.69h19.8l5.34-26.85,1.52-7.66A37.1,37.1,0,0,1,259.51,153.44Zm-48.31-3.72c.4-.3.81-.59,1.24-.86a18.6,18.6,0,0,1,10-2.73c4.67,0,8.35,1.29,10.95,3.84s3.9,6.09,3.9,10.51a25,25,0,0,1-2.45,11.29A18.16,18.16,0,0,1,218,182.11c-4.67,0-8.36-1.29-10.95-3.84s-3.9-6.09-3.9-10.51a21.53,21.53,0,0,1,8-18Z"/><path class="cls-3" d="M329.82,168.64a40.2,40.2,0,0,1,5.08-20.16c.11-.19.23-.36.34-.55l3.49-17.6H320l-2.14,11.06a19.32,19.32,0,0,0-9-9.11A30.85,30.85,0,0,0,295,129.33a38.27,38.27,0,0,0-19.29,4.9,35.87,35.87,0,0,0-13.5,13.31,35.4,35.4,0,0,0-2.73,5.9,37.1,37.1,0,0,0-2.1,10.55c0,.75-.07,1.5-.07,2.27a33.81,33.81,0,0,0,.43,5.32,26.19,26.19,0,0,0,3.53,9.75A26.6,26.6,0,0,0,272,191.19a33,33,0,0,0,15.2,3.45q12.27,0,20.39-7.36c.06-.06.14-.11.21-.17l0,.28-.46,2.6q-1.87,8.81-7,13.13t-15.07,4.33a45.62,45.62,0,0,1-13.38-1.94,29.15,29.15,0,0,1-10.36-5.34l-9.3,14.19A42.21,42.21,0,0,0,266.32,221a67.85,67.85,0,0,0,18,2.26q18,0,28.7-8.79t14.51-27.89l1.92-9.69.68-3.39A35,35,0,0,1,329.82,168.64ZM306.58,173a19.07,19.07,0,0,1-14.07,5.52q-7.15,0-11.3-3.57a12.2,12.2,0,0,1-4.15-9.74,19.11,19.11,0,0,1,5.59-14.19,19.42,19.42,0,0,1,14.26-5.53q7.15,0,11.18,3.58a12.38,12.38,0,0,1,4,9.74A19.25,19.25,0,0,1,306.58,173Z"/><path class="cls-3" d="M376.23,181.58a29.86,29.86,0,0,1-9.86,1.63q-16.47,0-17.46-13.82h51.51l1.09-5.46a45.78,45.78,0,0,0,.28-4.83,30.55,30.55,0,0,0-4-15.7A26.4,26.4,0,0,0,386.65,133a37.36,37.36,0,0,0-17-3.64,41.21,41.21,0,0,0-20.6,5.09,36.37,36.37,0,0,0-13.79,13.51c-.11.19-.23.36-.34.55a40.2,40.2,0,0,0-5.08,20.16,35,35,0,0,0,.34,4.88,29.24,29.24,0,0,0,.63,3.28,28,28,0,0,0,3.23,7.79,27.45,27.45,0,0,0,12.06,10.62,42.37,42.37,0,0,0,18.28,3.7,51.35,51.35,0,0,0,15.32-2.26,39.21,39.21,0,0,0,12.94-6.78l-2.17-3.44-6-9.5A25.1,25.1,0,0,1,376.23,181.58Zm-19.16-33.85A18.48,18.48,0,0,1,368.75,144q6.92,0,11,3.71T383.82,158H350.29A20,20,0,0,1,357.07,147.73Z"/><path class="cls-3" d="M471.66,146.91h-3.18l1.21-6.06a18.65,18.65,0,0,0-4.23-5.56q-6.66-6-18-6-13.19,0-22.23,8.29l1.51-7.29H408.19l-6.68,33.6-1.09,5.46L397,186.73l-2.22,11.18h19.59l6.79-34.29q1.75-8.67,6.72-13a18.28,18.28,0,0,1,12.49-4.34c3.85,0,6.74.93,8.67,2.77s2.89,4.52,2.89,8a20.5,20.5,0,0,1-.5,4.64l-7.29,36.18h19.6l7.53-37.43c0-.12.05-.24.07-.36a38.41,38.41,0,0,0,.81-7.81A30.87,30.87,0,0,0,471.66,146.91Z"/><path class="cls-3" d="M507.68,181.08a15.32,15.32,0,0,1-7.68,2.26q-7.15,0-7.16-6.53a11.73,11.73,0,0,1,.26-2.77l5.4-27.13h12.82a36.63,36.63,0,0,1,5.33-6.63l1.69-8.44H501.51l1-4.87,2.3-11.58h-19.6l-.14.72-3.12,15.73H471.49l-1.8,9-1.21,6.06H478.9l-2.81,14.21-2.59,13a32.92,32.92,0,0,0-.63,5.9q0,8.79,5.78,13.82t15.33,5q10.29,0,16.83-4l-1.7-8.2-1-4.6C508,181.75,507.83,181.42,507.68,181.08Z"/><path class="cls-3" d="M562.11,133a37.3,37.3,0,0,0-17-3.64c-.8,0-1.6,0-2.39.06a40.4,40.4,0,0,0-18.2,5,37,37,0,0,0-7.85,5.86,36.63,36.63,0,0,0-5.33,6.63c-.32.52-.65,1-.95,1.57a40.11,40.11,0,0,0-5.09,20.16,31.32,31.32,0,0,0,2.4,12.44c.15.34.31.67.47,1a27.32,27.32,0,0,0,1.34,2.5c.29.49.61,1,.94,1.42a27.55,27.55,0,0,0,11.11,9.2,42.43,42.43,0,0,0,18.28,3.7,51.26,51.26,0,0,0,15.32-2.26,39.11,39.11,0,0,0,12.94-6.78l-8.16-12.94a25.25,25.25,0,0,1-8.23,4.65,29.86,29.86,0,0,1-9.86,1.63q-16.46,0-17.46-13.82h51.75a53.1,53.1,0,0,0,1.13-10.29,30.55,30.55,0,0,0-4-15.7A26.35,26.35,0,0,0,562.11,133Zm-29.58,14.76A18.51,18.51,0,0,1,544.22,144q6.9,0,11,3.71T559.29,158H525.75A20,20,0,0,1,532.53,147.73Z"/><path class="cls-1" d="M483.93,28.42l0-.08.53-1.12.74-.69a5.6,5.6,0,0,0,1.34-4.91,2.19,2.19,0,0,0-.93-1.53c-.25-.15-.75-.46-2.3,0l-.58.18-.61.05a1.59,1.59,0,0,0-.9.38,2.31,2.31,0,0,0-.4.42l-.6.78-.15.1v1.22a2,2,0,0,0,0,.41,1.84,1.84,0,0,0,.65,1.07l.4.32.34.39a2.73,2.73,0,0,0,.23.25l1.06,1.12.3,1.49.06,0A1.88,1.88,0,0,0,483.93,28.42Z"/><path class="cls-1" d="M467.48,52.11A29.59,29.59,0,0,0,476,53.36a31.57,31.57,0,0,0,3.22-.17,34.05,34.05,0,0,0,10.59-2.94c.19-.08.37-.19.55-.28a38,38,0,0,0,8.08-5.25l.12-.1a13.55,13.55,0,0,0,1.21-1.18,32.17,32.17,0,0,0,4.53-6.54,28.91,28.91,0,0,0,2.83-8.14A25,25,0,0,0,507,19a24,24,0,0,0-4.21-9.21l-.15-.19c-.17-.23-.34-.43-.52-.64a25.63,25.63,0,0,0-8-6.09,29.2,29.2,0,0,0-3.24-1.35,28.14,28.14,0,0,0-5.63-1.3A27.32,27.32,0,0,0,480.59,0a24.32,24.32,0,0,0-4.89.69,22.63,22.63,0,0,0-7.87,3.53,12.39,12.39,0,0,0-1.22-.9,11.08,11.08,0,0,0-2.3-1.11A10.88,10.88,0,0,0,451.54,6.7a32.93,32.93,0,0,0-4,9.13v.05a32.14,32.14,0,0,0-1,10.43,28.75,28.75,0,0,0,3.09,11.2,26.93,26.93,0,0,0,7.52,9,30.68,30.68,0,0,0,3.68,2.62,29.14,29.14,0,0,0,5.56,2.65C466.75,51.88,467.14,52,467.48,52.11ZM456.49,34a20.81,20.81,0,0,1-2.25-8.19,24.21,24.21,0,0,1,.78-7.92,25.61,25.61,0,0,1,3-7,3.18,3.18,0,0,1,3.73-1.3,3.43,3.43,0,0,1,.67.32,3.18,3.18,0,0,1,1.36,3.55l0,.13a26.09,26.09,0,0,0-1,5.69,19.44,19.44,0,0,0,.41,5.38A12.91,12.91,0,0,0,465.07,29a10.06,10.06,0,0,0,3.17,3l.35.26a11.9,11.9,0,0,0,3.14,1.64c.32.11.64.2,1,.29a12.6,12.6,0,0,0,4.56.23A16.19,16.19,0,0,0,482,33.09a19.51,19.51,0,0,0,4.08-2.46l.09-.07.07-.09a14.2,14.2,0,0,0,1.66-2.31,11,11,0,0,0,1.15-2.86,6.81,6.81,0,0,0,.13-2.6,6,6,0,0,0-.81-2.23l-.05-.1-.07-.08A10,10,0,0,0,484,17.57a10.89,10.89,0,0,0-1.24-.35,8.46,8.46,0,0,0-6.35.77,5,5,0,0,0-1,.9,6,6,0,0,0-.75,1.25l-.1.28a4.16,4.16,0,0,0-.17.49,2.7,2.7,0,0,0-.12.65l0,0,0,.16,0,.32,0,.57.21.32a1.18,1.18,0,0,0,.25.31,5.29,5.29,0,0,0,1.47.91c.44.2,1,.4,1.65.63l1.24.42,1.43.48.38.13a2.56,2.56,0,0,1,1.46,1.32,2.52,2.52,0,0,1,.1,2,2.58,2.58,0,0,1-2.74,1.69l-1.25-.14a32.2,32.2,0,0,1-4.18-.66,11.37,11.37,0,0,1-1.19-.35,12.31,12.31,0,0,1-2-.91,7.84,7.84,0,0,1-3-3l-.28-.49c-.06-.14-.12-.27-.17-.4l-.13-.35c-.1-.27-.2-.54-.27-.8a10.13,10.13,0,0,1-.31-2v-.24c0-.26,0-.52,0-.77l.09-.91a12.36,12.36,0,0,1,.26-1.54l0-.22a12.62,12.62,0,0,1,3.8-6.4,14.81,14.81,0,0,1,6.45-3.31,16.79,16.79,0,0,1,3.42-.48,19.17,19.17,0,0,1,3.37.14,19.5,19.5,0,0,1,4.07.94,22.16,22.16,0,0,1,2.38,1,18.11,18.11,0,0,1,5.63,4.27,1.34,1.34,0,0,1,.11.14l.14.18a16.19,16.19,0,0,1,2.85,6.22,17.39,17.39,0,0,1,.09,6.75,21.08,21.08,0,0,1-2.08,5.94,24.52,24.52,0,0,1-3.44,5,4.09,4.09,0,0,1-.47.46,30.79,30.79,0,0,1-7,4.49,26.27,26.27,0,0,1-8.14,2.27,22.38,22.38,0,0,1-8.76-.79c-.28-.08-.56-.17-.83-.27a21.48,21.48,0,0,1-6.9-4A19.22,19.22,0,0,1,456.49,34Zm26.34-7.16-1.06-1.12a2.73,2.73,0,0,1-.23-.25l-.34-.39-.4-.32a1.84,1.84,0,0,1-.65-1.07,2,2,0,0,1,0-.41V22l.15-.1.6-.78a2.31,2.31,0,0,1,.4-.42,1.59,1.59,0,0,1,.9-.38l.61-.05.58-.18c1.55-.49,2-.18,2.3,0a2.19,2.19,0,0,1,.93,1.53,5.6,5.6,0,0,1-1.34,4.91l-.74.69L484,28.34l0,.08a1.88,1.88,0,0,1-.74-.09l-.06,0Z"/><path class="cls-3" d="M468.89,44.44c.27.1.55.19.83.27a22.38,22.38,0,0,0,8.76.79,26.27,26.27,0,0,0,8.14-2.27,30.79,30.79,0,0,0,7-4.49,4.09,4.09,0,0,0,.47-.46,24.52,24.52,0,0,0,3.44-5,21.08,21.08,0,0,0,2.08-5.94,17.39,17.39,0,0,0-.09-6.75,16.19,16.19,0,0,0-2.85-6.22l-.14-.18a1.34,1.34,0,0,0-.11-.14,18.11,18.11,0,0,0-5.63-4.27,22.16,22.16,0,0,0-2.38-1,19.5,19.5,0,0,0-4.07-.94,19.17,19.17,0,0,0-3.37-.14,16.79,16.79,0,0,0-3.42.48,14.81,14.81,0,0,0-6.45,3.31,12.62,12.62,0,0,0-3.8,6.4l0,.22A12.36,12.36,0,0,0,467,19.7l-.09.91c0,.25,0,.51,0,.77v.24a10.13,10.13,0,0,0,.31,2c.07.26.17.53.27.8l.13.35c.05.13.11.26.17.4l.28.49a7.84,7.84,0,0,0,3,3,12.31,12.31,0,0,0,2,.91,11.37,11.37,0,0,0,1.19.35,32.2,32.2,0,0,0,4.18.66l1.25.14a2.58,2.58,0,0,0,2.74-1.69,2.52,2.52,0,0,0-.1-2,2.56,2.56,0,0,0-1.46-1.32l-.38-.13-1.43-.48-1.24-.42c-.68-.23-1.21-.43-1.65-.63a5.29,5.29,0,0,1-1.47-.91,1.18,1.18,0,0,1-.25-.31l-.21-.32,0-.57,0-.32,0-.16,0,0a2.7,2.7,0,0,1,.12-.65,4.16,4.16,0,0,1,.17-.49l.1-.28a6,6,0,0,1,.75-1.25,5,5,0,0,1,1-.9,8.46,8.46,0,0,1,6.35-.77,10.89,10.89,0,0,1,1.24.35,10,10,0,0,1,4.21,2.72l.07.08.05.1a6,6,0,0,1,.81,2.23,6.81,6.81,0,0,1-.13,2.6,11,11,0,0,1-1.15,2.86,14.2,14.2,0,0,1-1.66,2.31l-.07.09-.09.07A19.51,19.51,0,0,1,482,33.09a16.19,16.19,0,0,1-4.75,1.36,12.6,12.6,0,0,1-4.56-.23c-.32-.09-.64-.18-1-.29a11.9,11.9,0,0,1-3.14-1.64l-.35-.26a10.06,10.06,0,0,1-3.17-3,12.91,12.91,0,0,1-1.87-4.42,19.44,19.44,0,0,1-.41-5.38,26.09,26.09,0,0,1,1-5.69l0-.13a3.18,3.18,0,0,0-1.36-3.55,3.43,3.43,0,0,0-.67-.32,3.18,3.18,0,0,0-3.73,1.3,25.61,25.61,0,0,0-3,7,24.21,24.21,0,0,0-.78,7.92A20.81,20.81,0,0,0,456.49,34a19.22,19.22,0,0,0,5.5,6.5A21.48,21.48,0,0,0,468.89,44.44Z"/><path class="cls-1" d="M125.28,122.06c2.86-11.59,4.83-23.41,7.39-35.07q3.9-17.74,8.48-35.34c.19-.73.26-1.93-.47-2.42a1,1,0,0,0-1.58.68q-4.56,17.61-8.37,35.4c-2.56,12-5.24,24.13-6.53,36.32-.09.89.81,1.53,1.08.43Z"/><path class="cls-1" d="M140.92,50.35c.17,0,.16-.39,0-.39s-.16.39,0,.39Z"/><path class="cls-1" d="M141.87,42.12c-.71,1.7-1.31,3.41-1.85,5.17-.27.87-.51,1.74-.75,2.61a15.47,15.47,0,0,0-.72,3.29,1.66,1.66,0,0,0,.67,1.41.79.79,0,0,0,1.11-.35,11.9,11.9,0,0,0,.89-2.94c.24-1,.48-1.91.69-2.87.41-1.89.74-3.77,1-5.69a1,1,0,0,0-.35-1c-.31-.18-.56.07-.68.36Z"/><path class="cls-1" d="M261.39,76.48a29.56,29.56,0,0,1-4.78,31.75,2.31,2.31,0,0,0-.35,2.38c.26.56,1,1.22,1.58.58,8.63-9.53,10.38-24.24,4.54-35.64-.54-1.06-1.35.17-1,.93Z"/><path class="cls-1" d="M162.22,95.77c14.28.35,27.86-7.83,33.41-21.15.36-.85-.71-2.83-1.37-1.53-5.91,11.83-18.7,20.45-32.1,20.29-1,0-1,2.36.06,2.39Z"/><path class="cls-1" d="M336.64,80.73A71,71,0,0,1,331,107.46c-.63,1.52,1.18,3.87,2,1.73A71.15,71.15,0,0,0,338,80.69c0-1.23-1.3-1.19-1.31,0Z"/><path class="cls-1" d="M404.82,73.4a25.48,25.48,0,0,1,3.23,9.69,10.16,10.16,0,0,1-.18,3.73,7.83,7.83,0,0,1-2,3,2.25,2.25,0,0,0-.46,1.92c.1.48.49,1.3,1.1,1.22,1.79-.25,2.86-2.21,3.38-3.8a13.92,13.92,0,0,0,.54-5.52A24.56,24.56,0,0,0,406,71.47a.7.7,0,0,0-1.24,0,1.85,1.85,0,0,0,0,1.9Z"/><path class="cls-1" d="M401.17,92.65c-.49-1.57-.66-1.9-.51-1a1.88,1.88,0,0,0,.29.72,1.49,1.49,0,0,0,.64.5,5.11,5.11,0,0,0,.66.22,9.66,9.66,0,0,0,1.59.29,5.79,5.79,0,0,0,1.38,0c.31,0,.61-.11.91-.18a1.62,1.62,0,0,0,.78-.56,1.93,1.93,0,0,0,.46-1.6c-.05-.46-.27-1.14-.78-1.3a3.47,3.47,0,0,0-.46-.13.68.68,0,0,0-.4,0l-.32.07.31-.07a8.68,8.68,0,0,1-3.33.1l.3.06a4.32,4.32,0,0,0-1.05-.2,1.33,1.33,0,0,0-1,1.23,2.09,2.09,0,0,0,.54,1.84Z"/><path class="cls-1" d="M396.88,112.25a24.88,24.88,0,0,0,1.47,3.34,19.44,19.44,0,0,0,1,1.77,5.54,5.54,0,0,0,1.33,1.52.81.81,0,0,0,1.22-.27,2.09,2.09,0,0,0,.11-1.87A11.4,11.4,0,0,0,401,115c-.35-.46-.68-.93-1-1.4s-.59-.93-.87-1.41L399,112l-.21-.42c-.14-.26-.26-.53-.39-.8-.21-.46-.77-.93-1.24-.46a1.85,1.85,0,0,0-.28,1.89Z"/><path class="cls-1" d="M428.78,88.86a30.31,30.31,0,0,1,8.32-11.39c3.49-3,8.75-6.6,13.53-5,1.26.41,1.3-2,.4-2.53-4.87-2.58-11,2-14.55,5.16a34.15,34.15,0,0,0-9,12.73c-.37.93.71,2.37,1.26,1.06Z"/><path class="cls-1" d="M474.49,98.59c2.5-9.83,5-19.66,7.21-29.56.3-1.32-1.26-2.24-1.59-.63-2.05,9.81-4.18,19.61-6.65,29.32-.19.77.75,2,1,.87Z"/><path class="cls-1" d="M537.81,80.45c.9,8.8,1.59,18.34-4.13,25.78-.72.94.28,3.28,1.35,2,6.32-7.89,5.07-18.66,3.92-28-.12-1-1.23-.64-1.14.26Z"/><path class="cls-1" d="M34.27,143.39a8.77,8.77,0,0,0-4.46,7.66,8.13,8.13,0,0,0,4.6,7.64c.73.33.83-1.22.39-1.55A8.49,8.49,0,0,1,31.27,151a7.62,7.62,0,0,1,3.41-6.26c.43-.3.18-1.68-.41-1.36Z"/><path class="cls-1" d="M67,171.62a16.52,16.52,0,0,1,.22,7.75,14.93,14.93,0,0,1-3.38,5.72,1.54,1.54,0,0,0-.27,1.46c.12.38.45.85.92.65a6,6,0,0,0,2.87-2.67,14,14,0,0,0,1.55-4,20.8,20.8,0,0,0-.43-9.57c-.11-.44-.44-1-1-.8s-.61,1-.51,1.46Z"/><path class="cls-1" d="M132.12,148.74a19.1,19.1,0,0,1,3.11,15.58c-.16.69.1,1.85.85,2.12s1.24-.63,1.38-1.25A21.82,21.82,0,0,0,133.18,147c-.9-1.14-1.66.91-1.06,1.71Z"/><path class="cls-1" d="M132.22,165.82l1.77.06a17.34,17.34,0,0,0,1.77-.08c.62-.05.87-.83.84-1.36s-.26-1.26-.9-1.31a17.67,17.67,0,0,0-1.78-.08l-1.77.06c-.63,0-.89.86-.86,1.38s.27,1.31.93,1.33Z"/><path class="cls-1" d="M125.79,182c.76,1.19,1.51,2.39,2.28,3.57l1.11,1.71a7.92,7.92,0,0,0,1.3,1.73.49.49,0,0,0,.74-.16,1.32,1.32,0,0,0,.07-1.13,9.57,9.57,0,0,0-1.17-2L129,184.11c-.78-1.15-1.57-2.28-2.37-3.42a.49.49,0,0,0-.86,0,1.31,1.31,0,0,0,0,1.31Z"/><path class="cls-1" d="M156.63,169.3a40.09,40.09,0,0,1,4.69-12.9c2-3.68,4.7-7.53,9.1-8.34,1-.18,1-2.39-.06-2.35-5,.17-8.27,4.37-10.36,8.49-2.37,4.67-4.24,9.63-4.41,14.92,0,.79.91,1.09,1,.18Z"/><path class="cls-1" d="M242.4,151.46a51.3,51.3,0,0,1-3.49,24.89,1.85,1.85,0,0,0,.29,1.81.71.71,0,0,0,1.21-.14A43.56,43.56,0,0,0,244,150.74c-.09-.5-.49-1.06-1.05-.86s-.6,1.1-.55,1.58Z"/><path class="cls-1" d="M321.88,132.2a49.25,49.25,0,0,0-1.92,7.86c-.11.65.07,1.68.77,1.94s1.21-.56,1.26-1.14a47.5,47.5,0,0,1,1.34-7.43,1.64,1.64,0,0,0-.34-1.7c-.45-.37-.95,0-1.11.47Z"/><path class="cls-1" d="M310.45,214c10.44-7,14-20.11,16.19-31.75.22-1.16-1.33-2.78-1.77-1.08-2.94,11.25-5.37,23.2-15.05,30.76-.63.49-.21,2.62.63,2.07Z"/><path class="cls-1" d="M393.44,146a27,27,0,0,1,2.92,15.92c-.08.65.05,1.67.78,1.94s1.17-.57,1.26-1.15a26.48,26.48,0,0,0-3.79-18.15c-.69-1.11-1.57.69-1.17,1.44Z"/><path class="cls-1" d="M392.08,163.12a1.79,1.79,0,0,0,.39.59,4.05,4.05,0,0,0,.35.21,2.25,2.25,0,0,0,.51.2l1,.28c.34.09.68.18,1,.25a3,3,0,0,0,.74.06,1.33,1.33,0,0,0,.69-.21,1.72,1.72,0,0,0,.15-2.56,1.64,1.64,0,0,0-.63-.44,4.76,4.76,0,0,0-.74-.2c-.34,0-.69-.07-1-.09l-1-.08a2.27,2.27,0,0,0-.52,0,2.34,2.34,0,0,0-.38.09,1.19,1.19,0,0,0-.45.44,1.28,1.28,0,0,0-.2.68,1.58,1.58,0,0,0,.11.75Z"/><path class="cls-1" d="M383.37,181.52a81.43,81.43,0,0,0,5.16,7.44.88.88,0,0,0,.68.4.84.84,0,0,0,.65-.43,2,2,0,0,0-.05-2,83.1,83.1,0,0,0-5.3-7.22.68.68,0,0,0-1.19,0,1.74,1.74,0,0,0,.05,1.8Z"/><path class="cls-1" d="M466.07,166.21c-1.83,8.17-3.62,16.3-4.94,24.57-.1.63.07,1.72.78,2s1.19-.55,1.27-1.16c1.13-8.33,2.29-16.71,3.92-25,.17-.85-.8-1.44-1-.41Z"/><path class="cls-1" d="M506,184.69c-.08.35,0,.72-.1,1.07a5.58,5.58,0,0,0,0,1.29c.05.84.13,1.67.23,2.49s.21,1.53.34,2.29a9,9,0,0,0,.66,2.46c.27.54.79,1.08,1.42.66a2.07,2.07,0,0,0,.6-2,8.13,8.13,0,0,0-.36-1.37l-.15-.45s-.19-.62-.12-.36c-.2-.67-.38-1.35-.54-2s-.3-1.36-.43-2a12.94,12.94,0,0,0-.49-2.22.57.57,0,0,0-.61-.42c-.3.06-.42.4-.48.66Z"/><path class="cls-1" d="M495.76,152.3a4.79,4.79,0,0,0,1-2c.23-.69.44-1.39.66-2.09s.39-1.24.58-1.86c0-.14.09-.27.14-.4a.85.85,0,0,1,.09-.22c-.05.09-.05.1,0,0a3.08,3.08,0,0,0,.41-1.48l-.32.92c.63-.44,1.55-.09,2.21.08.44.12.89.25,1.34.34a2.82,2.82,0,0,0,1.65-.15c.44-.16.61-.84.59-1.25s-.18-1.14-.65-1.23-1.06-.26-1.64-.35c-.4-.06-1-.2-1.46-.26a3.08,3.08,0,0,0-2.79,1l.53-.12c-.89-.36-1.37.72-1.67,1.39a13.84,13.84,0,0,0-.61,1.92c-.21.74-.43,1.47-.63,2.22a7.55,7.55,0,0,0-.45,2.61c0,.47.45,1.46,1.07.89Z"/><path class="cls-1" d="M570.63,149.28a34.14,34.14,0,0,1,1.36,9,28.68,28.68,0,0,1-.21,4.25,5.29,5.29,0,0,1-.36,1.46,5.87,5.87,0,0,0-.81,1.93c-.05.61,0,1.49.71,1.76,1.59.64,2.36-2.26,2.6-3.33a22.94,22.94,0,0,0,.32-5.3,36.79,36.79,0,0,0-2-10.83.77.77,0,0,0-1.11-.52,1.55,1.55,0,0,0-.47,1.6Z"/><path class="cls-1" d="M567.93,167.29c.85.09,1.7.14,2.56.15.42,0,.84,0,1.26,0l.62,0a1.9,1.9,0,0,0,.53-.09,2.31,2.31,0,0,0,.52-.38,2.09,2.09,0,0,0,.51-1.76,1.77,1.77,0,0,0-.86-1.43,1.33,1.33,0,0,0-.43-.17,1.42,1.42,0,0,0-.46,0l-.57.07c-.42,0-.84.08-1.26.1-.84,0-1.67.06-2.51,0a1.07,1.07,0,0,0-.81.54,2.19,2.19,0,0,0-.3,1.25c0,.75.35,1.64,1.2,1.73Z"/><path class="cls-1" d="M558.75,181.47a21.88,21.88,0,0,0,1.89,3.54,14.68,14.68,0,0,0,1.1,1.49,3.48,3.48,0,0,0,.79.79l.83.5c.32.18.64-.22.72-.47a1.42,1.42,0,0,0-.13-1.19c-.16-.27-.33-.54-.48-.82a6.05,6.05,0,0,0-.56-.77c-.38-.46-.75-.93-1.1-1.42s-.65-1-.94-1.45l-.23-.4-.1-.18c-.06-.1.06.11,0-.06s-.28-.55-.41-.83-.69-.83-1.11-.41a1.62,1.62,0,0,0-.24,1.68Z"/><path class="cls-1" d="M456.45,26A22.09,22.09,0,0,0,463.5,39.6c.59.52,1.26,0,1.47-.63a2.15,2.15,0,0,0-.44-2.25,18.9,18.9,0,0,1-6.48-11.49c-.07-.48-.51-1.07-1.05-.86s-.62,1.08-.55,1.58Z"/><path class="cls-1" d="M486.6,15.89a8.35,8.35,0,0,1,3.74,4.28c.09.23.18.46.25.7l0,.13.09.36c0,.24.1.48.14.72.07.46,0-.18,0,.08s0,.24,0,.36,0,.49,0,.73c0,.05,0,.53,0,.14l0,.36c0,.24-.06.48-.11.72s0,.24-.07.36c.06-.26,0,.11,0,.18a2.13,2.13,0,0,0,.44,2.21c.59.49,1.22,0,1.44-.62,1.72-4.86-.72-10.79-5.65-12.59-.92-.34-1,1.52-.29,1.88Z"/></svg>