<svg id="Camada_1" data-name="Camada 1" xmlns="http://www.w3.org/2000/svg" viewBox="0 0 221.79 66.69"><defs><style>.cls-1{fill:#fff;}</style></defs><title>logo.small.white</title><path id="Caminho_605" data-name="Caminho 605" class="cls-1" d="M16.66,42H29.6a35.78,35.78,0,0,0,15-2.9,22.16,22.16,0,0,0,9.68-8.19,26.68,26.68,0,0,0,2.63-5.89,18.06,18.06,0,0,0,.43-1.83,26.89,26.89,0,0,0,.47-5.15,16.11,16.11,0,0,0-5.93-13.3Q45.9,0,35.05,0H11.61L0,58H13.51ZM40.54,28a15.65,15.65,0,0,1-10.36,3.07H18.82L22.88,11H33.41a13.15,13.15,0,0,1,8,2.07,7.27,7.27,0,0,1,2.78,6.22A10.86,10.86,0,0,1,40.54,28Z"/><path id="Caminho_612" data-name="Caminho 612" class="cls-1" d="M93.12,35.07A22.73,22.73,0,0,1,92.74,32a8,8,0,0,0-1.86-3.47,12.85,12.85,0,0,0-5.26-3.44,61,61,0,0,0-7.75-1.95,39,39,0,0,1-6.39-1.69,2.67,2.67,0,0,1-1.91-2.53,3.63,3.63,0,0,1,2.21-3.15,13.23,13.23,0,0,1,6.43-1.25A26.07,26.07,0,0,1,89,16.63a21.69,21.69,0,0,1,2.44,1.27L96,8.45a27.17,27.17,0,0,0-7.46-2.73,40.9,40.9,0,0,0-9-1A28.61,28.61,0,0,0,63.33,8.87a13.15,13.15,0,0,0-6.18,11.52,9.47,9.47,0,0,0,2.28,6.68,13.2,13.2,0,0,0,5.39,3.52,57,57,0,0,0,7.92,2,40.65,40.65,0,0,1,6.14,1.57,2.54,2.54,0,0,1,1.9,2.41,3.48,3.48,0,0,1-2.15,3.19,14.7,14.7,0,0,1-6.55,1.12,31.11,31.11,0,0,1-8.42-1.16,25.18,25.18,0,0,1-7.08-3.07L51.6,46a23.87,23.87,0,0,0,8.09,3.36,45.59,45.59,0,0,0,11,1.28,29.29,29.29,0,0,0,16.21-4.06,12.82,12.82,0,0,0,6.17-9.81,16.32,16.32,0,0,0,.09-1.71Z"/><path id="Caminho_615" data-name="Caminho 615" class="cls-1" d="M142.09,21,145.2,5.36H131.47l-1.05,5.44c-2.94-4.05-7.75-6.11-14.3-6.11a24.32,24.32,0,0,0-20.56,11l-.33.49c-.17.26-.32.54-.48.81s-.22.35-.32.54A27.53,27.53,0,0,0,91.1,31a21.49,21.49,0,0,0,2.67,10.84A18.34,18.34,0,0,0,100.92,49a21.23,21.23,0,0,0,22.9-2l-.71,3.76h13.07L139.7,33l1-5.05A24.37,24.37,0,0,1,142.09,21ZM110.2,18.55c.27-.2.54-.39.82-.57a12.16,12.16,0,0,1,6.59-1.8,9.89,9.89,0,0,1,7.23,2.54,9.33,9.33,0,0,1,2.58,6.93,16.52,16.52,0,0,1-1.62,7.45,12,12,0,0,1-11.09,6.83,9.88,9.88,0,0,1-7.22-2.54,9.35,9.35,0,0,1-2.58-6.94,14.18,14.18,0,0,1,5.3-11.9Z"/><path id="Caminho_616" data-name="Caminho 616" class="cls-1" d="M189.33,17l2.3-11.62H179.29l-1.41,7.3a12.76,12.76,0,0,0-5.93-6,20.44,20.44,0,0,0-9.16-1.95,25.17,25.17,0,0,0-12.72,3.23,23.63,23.63,0,0,0-10.72,12.68,24.37,24.37,0,0,0-1.38,7c0,.49-.05,1-.05,1.48a21.8,21.8,0,0,0,.28,3.52,17.31,17.31,0,0,0,9.42,12.93,21.78,21.78,0,0,0,10,2.28,19.26,19.26,0,0,0,13.46-4.86l.14-.11,0,.19-.3,1.71a13,13,0,0,1-14.24,11.57l-.35,0A30,30,0,0,1,147.5,55a19.2,19.2,0,0,1-6.84-3.52l-6.13,9.37a27.8,27.8,0,0,0,9.32,4.39,44.73,44.73,0,0,0,11.9,1.49q11.85,0,18.94-5.81t9.58-18.4l1.27-6.4S189.26,17.1,189.33,17ZM170.42,33.54a12.54,12.54,0,0,1-9.29,3.65,11.06,11.06,0,0,1-7.46-2.36,8,8,0,0,1-2.73-6.43A12.55,12.55,0,0,1,154.63,19,12.78,12.78,0,0,1,164,15.39a10.71,10.71,0,0,1,7.37,2.36,8.2,8.2,0,0,1,2.66,6.43,12.7,12.7,0,0,1-3.65,9.36Z"/><path id="Caminho_623" data-name="Caminho 623" class="cls-1" d="M201.35,40.74l.55.18a14.85,14.85,0,0,0,5.78.52,17.4,17.4,0,0,0,5.38-1.5,20.61,20.61,0,0,0,4.59-3,2.94,2.94,0,0,0,.31-.3,16.34,16.34,0,0,0,2.27-3.27,14.12,14.12,0,0,0,1.37-3.93,11.49,11.49,0,0,0-.06-4.45,10.65,10.65,0,0,0-1.88-4.1l-.09-.13-.07-.08a12.09,12.09,0,0,0-3.72-2.83,15.27,15.27,0,0,0-1.57-.65,13,13,0,0,0-2.69-.62,12.69,12.69,0,0,0-2.22-.09,10.62,10.62,0,0,0-2.25.32A9.72,9.72,0,0,0,202.78,19a8.21,8.21,0,0,0-2.5,4.22l0,.15a7.1,7.1,0,0,0-.17,1L200,25c0,.16,0,.34,0,.51v.16a7.37,7.37,0,0,0,.21,1.33,4.72,4.72,0,0,0,.18.53l.09.23c0,.09.07.18.11.27l.18.32a5.28,5.28,0,0,0,2,2,8,8,0,0,0,1.33.6c.27.09.53.17.79.23a21.25,21.25,0,0,0,2.75.43l.83.09a1.7,1.7,0,0,0,.78-3.28l-.26-.09-.94-.31-.82-.27a11.3,11.3,0,0,1-1.09-.43,3.27,3.27,0,0,1-1-.59.87.87,0,0,1-.17-.22l-.14-.21,0-.37v-.22l0-.1h0a2,2,0,0,1,.08-.42,3,3,0,0,1,.11-.32l.07-.19a4.16,4.16,0,0,1,.5-.83,3.71,3.71,0,0,1,.66-.59,5.64,5.64,0,0,1,4.2-.51,7.49,7.49,0,0,1,.81.23,6.54,6.54,0,0,1,2.79,1.8l0,.05,0,.06a4.06,4.06,0,0,1,.53,1.47,4.52,4.52,0,0,1-.09,1.72,6.87,6.87,0,0,1-.76,1.89,9.06,9.06,0,0,1-1.09,1.53l0,0-.06.05A12.91,12.91,0,0,1,210,33.23a10.7,10.7,0,0,1-3.13.9,8.24,8.24,0,0,1-3-.15l-.64-.19a7.74,7.74,0,0,1-2.07-1.09l-.23-.17a6.45,6.45,0,0,1-2.09-2,8.59,8.59,0,0,1-1.24-2.92,12.84,12.84,0,0,1-.26-3.55,16.64,16.64,0,0,1,.65-3.76l0-.08a2.11,2.11,0,0,0-3.8-1.7,17.48,17.48,0,0,0-2,4.63,16.17,16.17,0,0,0-.51,5.23,13.78,13.78,0,0,0,1.48,5.4,12.75,12.75,0,0,0,3.63,4.29A14.33,14.33,0,0,0,201.35,40.74Z"/></svg>