<svg id="Camada_1" data-name="Camada 1" xmlns="http://www.w3.org/2000/svg" viewBox="0 0 352.77 192.28"><defs><style>.cls-1,.cls-2,.cls-3,.cls-4,.cls-5,.cls-6,.cls-7,.cls-8{fill:none;}.cls-1{stroke:#27f2ec;stroke-miterlimit:10;}.cls-2,.cls-3{stroke:#7f14ef;}.cls-2{stroke-miterlimit:10;}.cls-3{stroke-miterlimit:10;}.cls-5,.cls-7{stroke:#f2116d;}.cls-6{stroke:#f7cf00;}.cls-8{stroke:#facf00;stroke-miterlimit:4;}</style></defs><title>objects.mobile</title><path id="Caminho_658" data-name="Caminho 658" class="cls-1" d="M52.3,106.49,1,139.47l53.5,29.32Z"/><path id="Caminho_659" data-name="Caminho 659" class="cls-2" d="M268.69,26.08l-18.37-11.6-1.41,21.68Z"/><path id="Caminho_660" data-name="Caminho 660" class="cls-3" d="M98.86,170.17,77.67,175,92,191.29Z"/><g id="Retângulo_3" data-name="Retângulo 3"><rect class="cls-4" x="162.77" y="86.31" width="22" height="22" transform="translate(20.65 224.67) rotate(-69)"/><rect class="cls-5" x="163.27" y="86.81" width="21" height="21" transform="translate(20.65 224.67) rotate(-69)"/></g><g id="Elipse_1" data-name="Elipse 1"><circle class="cls-4" cx="316.77" cy="134.31" r="36"/><circle class="cls-6" cx="316.77" cy="134.31" r="35.5"/></g><g id="Retângulo_4" data-name="Retângulo 4"><path class="cls-4" d="M29.28,14.71,77.1.09a2,2,0,0,1,2.49,1.33h0a2,2,0,0,1-1.32,2.49L30.45,18.53A2,2,0,0,1,28,17.2h0A2,2,0,0,1,29.28,14.71Z"/><path class="cls-7" d="M29.43,15.18,77.24.57a1.5,1.5,0,0,1,1.88,1h0a1.5,1.5,0,0,1-1,1.87L30.3,18.05a1.49,1.49,0,0,1-1.87-1h0A1.52,1.52,0,0,1,29.43,15.18Z"/></g><g id="Retângulo_5" data-name="Retângulo 5"><path class="cls-4" d="M184.6,147l38.85,31.45a2,2,0,0,1,.3,2.81h0a2,2,0,0,1-2.81.3l-38.85-31.45a2,2,0,0,1-.3-2.81h0A2,2,0,0,1,184.6,147Z"/><path class="cls-8" d="M184.29,147.41l38.85,31.45a1.51,1.51,0,0,1,.22,2.11h0a1.5,1.5,0,0,1-2.11.22L182.4,149.74a1.5,1.5,0,0,1-.22-2.11h0A1.51,1.51,0,0,1,184.29,147.41Z"/></g></svg>