<svg id="Camada_1" data-name="Camada 1" xmlns="http://www.w3.org/2000/svg" viewBox="0 0 1471.76 376.76"><defs><style>.cls-1,.cls-10,.cls-2,.cls-3,.cls-4,.cls-5,.cls-6,.cls-7,.cls-8,.cls-9{fill:none;}.cls-1{stroke:#27f2ec;stroke-miterlimit:10;}.cls-2,.cls-8,.cls-9{stroke:#f2116d;}.cls-2{stroke-miterlimit:10;}.cls-3,.cls-7{stroke:#7f14ef;}.cls-3{stroke-miterlimit:10;}.cls-5{stroke:#f7cf00;}.cls-6{stroke:#facf00;stroke-miterlimit:4;}.cls-7{stroke-miterlimit:10;}.cls-10{stroke:#ffd00b;}</style></defs><title>objects.desktop</title><path id="Caminho_1042" data-name="Caminho 1042" class="cls-1" d="M122.81,178.45,1,256.74l127,69.59Z"/><path id="Caminho_1045" data-name="Caminho 1045" class="cls-2" d="M1352.53,210.25l-15.83,144,134.06-54.93Z"/><path id="Caminho_1044" data-name="Caminho 1044" class="cls-3" d="M1233.36,108.54l-50.3,11.35,34,38.75Z"/><g id="Elipse_5" data-name="Elipse 5"><circle class="cls-4" cx="968.17" cy="85.5" r="85.5"/><circle class="cls-5" cx="968.17" cy="85.5" r="85"/></g><g id="Retângulo_23" data-name="Retângulo 23"><path class="cls-4" d="M231.87,293.67l92.22,74.65a4.75,4.75,0,0,1,.7,6.68h0a4.75,4.75,0,0,1-6.67.7L225.89,301a4.75,4.75,0,0,1-.7-6.67h0A4.75,4.75,0,0,1,231.87,293.67Z"/><path class="cls-6" d="M231.55,294.05l92.22,74.66a4.23,4.23,0,0,1,.63,6h0a4.24,4.24,0,0,1-6,.63l-92.22-74.66a4.24,4.24,0,0,1-.63-6h0A4.25,4.25,0,0,1,231.55,294.05Z"/></g><path id="Caminho_1043" data-name="Caminho 1043" class="cls-7" d="M342.47,210.59l-43.6-27.54-3.34,51.46Z"/><g id="Retângulo_22" data-name="Retângulo 22"><path class="cls-4" d="M68.16,93.58,181.67,58.87A4.76,4.76,0,0,1,187.6,62h0A4.75,4.75,0,0,1,184.44,68L70.94,102.66A4.76,4.76,0,0,1,65,99.5h0A4.75,4.75,0,0,1,68.16,93.58Z"/><path class="cls-8" d="M68.31,94.05l113.5-34.7a4.26,4.26,0,0,1,5.31,2.82h0a4.26,4.26,0,0,1-2.82,5.31L70.79,102.18a4.25,4.25,0,0,1-5.3-2.82h0A4.25,4.25,0,0,1,68.31,94.05Z"/></g><g id="Retângulo_21" data-name="Retângulo 21"><rect class="cls-4" x="401.05" y="54.55" width="52.22" height="52.22" transform="translate(198.78 450.54) rotate(-69)"/><rect class="cls-9" x="401.55" y="55.05" width="51.22" height="51.22" transform="translate(198.78 450.54) rotate(-69)"/></g><g id="Retângulo_24" data-name="Retângulo 24"><rect class="cls-4" x="1117.05" y="257.55" width="52.22" height="52.22" transform="translate(468.67 1249.24) rotate(-69)"/><rect class="cls-10" x="1117.55" y="258.05" width="51.22" height="51.22" transform="translate(468.67 1249.24) rotate(-69)"/></g></svg>